<?xml version="1.0" encoding="UTF-8" standalone="no"?>
<!-- Created with Inkscape (http://www.inkscape.org/) -->

<svg
   xmlns:dc="http://purl.org/dc/elements/1.1/"
   xmlns:cc="http://creativecommons.org/ns#"
   xmlns:rdf="http://www.w3.org/1999/02/22-rdf-syntax-ns#"
   xmlns:svg="http://www.w3.org/2000/svg"
   xmlns="http://www.w3.org/2000/svg"
   xmlns:sodipodi="http://sodipodi.sourceforge.net/DTD/sodipodi-0.dtd"
   xmlns:inkscape="http://www.inkscape.org/namespaces/inkscape"
   width="210mm"
   height="297mm"
   viewBox="0 0 744.09448819 1052.3622047"
   id="svg4169"
   version="1.1"
   inkscape:version="0.91 r13725"
   sodipodi:docname="legende.svg">
  <defs
     id="defs4171" />
  <sodipodi:namedview
     id="base"
     pagecolor="#ffffff"
     bordercolor="#666666"
     borderopacity="1.0"
     inkscape:pageopacity="0.0"
     inkscape:pageshadow="2"
     inkscape:zoom="1.979899"
     inkscape:cx="243.33275"
     inkscape:cy="889.72384"
     inkscape:document-units="px"
     inkscape:current-layer="g4840"
     showgrid="false"
     inkscape:window-width="1156"
     inkscape:window-height="771"
     inkscape:window-x="1781"
     inkscape:window-y="228"
     inkscape:window-maximized="0" />
  <metadata
     id="metadata4174">
    <rdf:RDF>
      <cc:Work
         rdf:about="">
        <dc:format>image/svg+xml</dc:format>
        <dc:type
           rdf:resource="http://purl.org/dc/dcmitype/StillImage" />
        <dc:title />
      </cc:Work>
    </rdf:RDF>
  </metadata>
  <g
     inkscape:label="Calque 1"
     inkscape:groupmode="layer"
     id="layer1">
    <g
       id="g4725"
       style="fill:#d4aa00">
      <g
         style="font-style:normal;font-weight:normal;font-size:40px;line-height:125%;font-family:sans-serif;letter-spacing:0px;word-spacing:0px;fill:#d4aa00;fill-opacity:1;stroke:none;stroke-width:1px;stroke-linecap:butt;stroke-linejoin:miter;stroke-opacity:1"
         id="text4717" />
      <g
         id="g4840"
         inkscape:export-xdpi="90"
         inkscape:export-ydpi="90"
         style="fill:#8a916f;fill-opacity:1"
         inkscape:export-filename="C:\wamp\www\imagedutemps\image\legende.png"
         transform="matrix(0.82343305,0,0,0.68530953,83.026862,53.36638)">
        <g
           transform="scale(0.91228226,1.096152)"
           style="font-style:normal;font-weight:normal;font-size:53.2478981px;line-height:125%;font-family:sans-serif;letter-spacing:0px;word-spacing:0px;fill:#000000;fill-opacity:1;stroke:none;stroke-width:1px;stroke-linecap:butt;stroke-linejoin:miter;stroke-opacity:1"
           id="text4183" />
        <g
           id="g4306"
           inkscape:export-xdpi="90"
           inkscape:export-ydpi="90">
          <path
             id="path4252"
             style="fill:#d3bc5f;fill-opacity:1;font-style:normal;font-weight:normal;font-size:53.2478981px;line-height:125%;font-family:'Close to You';letter-spacing:0px;word-spacing:0px;stroke:none;stroke-width:1px;stroke-linecap:butt;stroke-linejoin:miter;stroke-opacity:1;font-variant:normal;font-stretch:normal;-inkscape-font-specification:'Close to You'"
             d="m 30.71871,-61.316705 0.266239,0.425983 c -2.715643,0.266239 -6.975474,8.35992 -7.561201,9.691117 -2.875387,6.762483 3.780601,8.839151 5.271542,5.271542 l -1.810429,0 c -1.970172,-1.437693 -1.703933,-3.727353 -0.905214,-5.750773 0.692223,-1.650685 2.183164,-5.697525 3.567609,-5.804021 -0.585727,-1.544189 12.673,-12.460008 14.69642,-9.478126 -0.532479,2.502652 -0.905214,3.56761 -2.236412,5.857269 -0.74547,1.27795 -3.194874,4.739063 -3.514361,5.484534 -1.01171,2.289659 -7.241714,8.466415 -7.507954,9.691117 -0.958462,0.05325 -4.526071,3.887097 -5.378037,4.739063 -1.384446,1.331197 -4.366328,3.30137 -6.123509,4.259832 -3.514361,1.916924 -8.626159,2.076668 -12.8859911,1.916924 l -1.8104285,0.05325 -1.8104285,-0.212991 -1.1182059,0.106495 -1.11820585,-0.106495 -2.92863435,0 c -1.3311975,0 -5.5377814,1.384445 -5.6442772,3.141626 3.5676091,-1.384446 7.77419308,-0.212992 10.3833401,-0.26624 l 1.544189,0.05325 0.2662395,-0.05325 1.5441891,0.05325 0.2662395,0 2.0234201,-0.212992 c 1.3844453,-0.05325 7.2417141,-0.05325 8.5729111,-2.02342 4.366328,0 16.560097,-12.566504 19.169244,-15.761378 1.277949,-1.650684 2.502651,-2.875386 3.780601,-4.313079 1.437693,-1.810429 2.129915,-3.088378 3.461113,-4.898807 1.650685,-2.236412 6.602739,-9.531374 2.236412,-9.531374 l -0.692223,0 c -4.685815,0 -12.939239,7.561202 -14.004197,7.667698 z"
             transform="scale(0.91228226,1.096152)" />
          <path
             id="path4254"
             style="fill:#d3bc5f;fill-opacity:1;font-style:normal;font-weight:normal;font-size:53.2478981px;line-height:125%;font-family:'Close to You';letter-spacing:0px;word-spacing:0px;stroke:none;stroke-width:1px;stroke-linecap:butt;stroke-linejoin:miter;stroke-opacity:1;font-variant:normal;font-stretch:normal;-inkscape-font-specification:'Close to You'"
             d="m 54.746822,-33.627798 c -0.05325,0 -0.05325,0 -0.05325,0 l -2.289659,0.159743 -1.597437,-1.75718 1.224701,-4.31308 -0.266239,-0.05325 c -1.224702,0.106496 -4.206584,2.981882 -5.32479,3.674105 -0.159744,0.106496 -0.851966,0.212992 -1.064958,0.319487 -0.692222,0.26624 -0.479231,0.479231 -1.384445,0.905215 -1.703933,0.74547 -1.384446,1.224701 -2.715643,0.425983 1.224702,-2.236412 3.407866,-3.30137 2.662395,-4.685815 l -0.958462,-0.159744 c -1.331198,0.851966 -9.957357,6.123508 -9.957357,4.632567 0,-0.851966 1.650685,-2.02342 2.236412,-2.662395 0.74547,-0.905214 0.585726,-1.703932 0.905214,-2.449403 -1.757181,-0.159744 -3.03513,1.064958 -4.845559,1.970172 -1.384445,0.692223 -2.555899,1.27795 -3.780601,1.810429 l -2.076668,2.076668 c 2.396156,-1.064958 6.549492,-3.354618 7.561202,-3.407866 l -1.490941,1.703933 0.212991,0.212992 c -1.064958,0.106495 -2.076668,1.970172 -2.183164,3.141626 2.928635,1.437693 9.105391,-4.792311 10.702828,-4.100089 l -1.916924,2.928635 0.479231,1.171454 c 3.674105,0 8.679407,-4.100089 9.265134,-4.100089 0.958462,0 0.106496,-0.106495 0.745471,0.212992 -0.26624,0.425983 -0.479232,0.851966 -0.479232,1.224702 0,3.354617 2.822139,2.76889 4.57932,2.555899 0.74547,-0.106496 1.384445,0.05325 2.396155,-0.372735 l -0.585727,-1.064958 z"
             transform="scale(0.91228226,1.096152)" />
          <path
             id="path4256"
             style="fill:#d3bc5f;fill-opacity:1;font-style:normal;font-weight:normal;font-size:53.2478981px;line-height:125%;font-family:'Close to You';letter-spacing:0px;word-spacing:0px;stroke:none;stroke-width:1px;stroke-linecap:butt;stroke-linejoin:miter;stroke-opacity:1;font-variant:normal;font-stretch:normal;-inkscape-font-specification:'Close to You'"
             d="m 66.108592,-33.521303 c -1.810428,0.692223 -2.342907,-0.212991 -3.620857,-0.372735 l -0.851966,-2.236412 c -1.384446,0.106496 -1.597437,1.544189 -3.354618,2.183164 -2.28966,0.798719 -1.863676,0.638975 -3.354618,-0.372735 1.118206,-2.28966 0.532479,-2.555899 2.822139,-4.31308 1.384445,-0.958462 3.674105,-2.236412 4.632567,-0.905214 l -1.437693,1.757181 c 0.425983,0.319487 0.425983,0.479231 0.905214,0.479231 l 0.212992,0 c 0.585727,0 1.437693,-1.01171 1.810428,-1.437694 0.585727,-0.532479 0.425984,-0.958462 0.479231,-2.02342 l -0.425983,-0.479231 c -3.887096,0 -5.271542,0.905214 -7.614449,2.822139 -1.064958,0.798718 -2.076668,1.703932 -2.768891,2.928634 -0.692223,1.331198 -0.638975,3.727353 0.905214,3.727353 l 1.171454,0 c 1.437693,0 2.715643,-1.810429 4.366328,-1.863676 0.159744,0.798718 0.532479,1.863676 1.863676,1.863676 l 1.118206,0 c 0.958462,0 2.236412,-0.425983 3.407866,-0.905214 l -0.26624,-0.851967 z"
             transform="scale(0.91228226,1.096152)" />
          <path
             id="path4258"
             style="fill:#d3bc5f;fill-opacity:1;font-style:normal;font-weight:normal;font-size:53.2478981px;line-height:125%;font-family:'Close to You';letter-spacing:0px;word-spacing:0px;stroke:none;stroke-width:1px;stroke-linecap:butt;stroke-linejoin:miter;stroke-opacity:1;font-variant:normal;font-stretch:normal;-inkscape-font-specification:'Close to You'"
             d="m 63.065974,-24.895143 c 1.916924,-0.106496 4.845559,-2.02342 6.017012,-1.437693 -0.372735,0.585726 -2.662395,3.620857 -2.875386,3.887096 -1.171454,1.224702 -2.02342,2.875387 -3.141626,3.993593 -0.212992,0.212991 -2.822139,3.354617 -2.928635,3.567609 -0.266239,0.958462 -3.141626,2.76889 -2.875386,3.567609 -1.01171,0.05325 -2.449403,2.2364116 -3.354618,2.8753864 -0.74547,0.5324789 -2.502651,0.5324789 -2.502651,-1.2247017 l 0,-0.9584617 c 0,-0.479232 0.372735,-1.757181 0.479231,-2.342908 l -0.479231,0 0,-0.745471 0.638975,0.479232 c 0.266239,-2.981883 7.880689,-10.862572 11.288554,-11.235307 l -0.266239,-0.425983 z m 7.774193,-13.098983 0.212992,0.479231 c -1.970173,0.05325 -3.141626,3.088378 -3.461114,4.472823 0.745471,1.118206 1.118206,1.810429 2.768891,1.650685 0.798718,-0.159743 2.715643,-1.597437 3.833849,-1.597437 l -3.354618,4.419576 c -0.159744,0.212991 -6.230004,2.502651 -7.135218,2.875386 -2.449404,1.224702 -5.111799,2.715643 -6.868979,4.366328 -1.863677,1.916924 -4.04684,3.833849 -4.952055,5.963765 -0.479231,1.224701 -1.277949,1.75718 -1.810428,3.620857 -0.905215,2.5558988 -0.532479,1.490941 -0.532479,3.8338483 1.277949,0.8519664 1.490941,1.7571807 3.194874,1.1182059 0.905214,-0.4792311 2.981882,-1.8636764 3.620857,-2.609147 0.638974,-0.6922222 2.502651,-2.6091472 2.928634,-3.2481222 0.585727,-0.798718 2.875387,-2.609147 2.449403,-3.141626 l 0.372736,0.159744 3.354617,-4.366328 -0.212991,-0.159743 0.692222,0 c 0.05325,-0.851967 2.076668,-2.928635 2.449404,-3.674105 0.638974,-1.331198 1.863676,-2.342908 3.141626,-3.088378 l 3.03513,-0.106496 1.650685,0 c 0.372735,0 1.118206,-0.212992 1.118206,-0.212992 l 1.490941,0.212992 0.905214,0 1.703933,-0.106496 3.03513,0.106496 c 1.224702,0.106496 2.396155,-0.585727 1.863676,-1.544189 l 0,-0.212992 -2.129916,-0.212991 -4.952054,-0.159744 -0.851967,0 -1.970172,0 -4.206584,0.692223 1.970173,-2.768891 1.437693,-2.183164 1.064958,-0.532479 c -0.319488,-0.585727 1.544189,-2.076668 0.425983,-2.076668 -0.372735,0 -2.449403,1.597437 -2.875387,1.757181 -0.532479,0.212991 -2.662394,1.277949 -2.715642,1.437693 -0.958463,-0.638975 -2.342908,-0.425983 -0.851967,-2.555899 0.532479,-0.638975 0.479231,-1.01171 1.224702,-1.597437 0.585727,-0.479231 1.384445,-0.532479 1.171454,-1.171454 l 4.898806,-1.970172 0.745471,0.479231 -1.810429,1.863677 c 0.212992,0.159743 0.638975,0.692222 0.798719,0.692222 1.01171,0 3.248122,-1.970172 2.609147,-3.03513 -0.372735,-0.638975 -0.798719,-0.905214 -1.27795,-0.905214 -1.437693,0 -2.289659,0.585727 -3.940344,0.958462 -1.064958,0.212991 -3.514361,1.970172 -4.259832,2.076668 z"
             transform="scale(0.91228226,1.096152)" />
          <path
             id="path4260"
             style="fill:#d3bc5f;fill-opacity:1;font-style:normal;font-weight:normal;font-size:53.2478981px;line-height:125%;font-family:'Close to You';letter-spacing:0px;word-spacing:0px;stroke:none;stroke-width:1px;stroke-linecap:butt;stroke-linejoin:miter;stroke-opacity:1;font-variant:normal;font-stretch:normal;-inkscape-font-specification:'Close to You'"
             d="m 90.343871,-33.255063 c -2.02342,0.74547 -2.875387,0.106496 -4.472824,-0.958462 l 0.212992,-0.905215 1.597437,-0.532479 -0.266239,-0.425983 0.159743,0.212992 3.30137,-2.076668 c 0.106496,-1.490941 0.479231,-0.372735 1.490941,-1.544189 0.26624,-0.319488 0.479231,-1.224702 0.798719,-1.863677 l -0.425984,-0.479231 c -3.7806,0 -7.401457,2.928635 -8.679407,5.59103 -0.479231,0.958462 0.266239,1.544189 -1.224702,1.863676 -0.479231,0.05325 -1.703932,0.532479 -2.289659,0.745471 l -0.958462,1.224701 3.940344,-1.384445 0.905214,1.224702 -0.212991,0.159743 c 2.129916,0.159744 1.01171,1.01171 4.206584,0.585727 0.425983,-0.05325 1.064958,-0.266239 1.810428,-0.425983 l 0.106496,-1.01171 z m -4.259832,-2.609147 c 0.159744,-2.076668 1.970172,-4.100088 4.579319,-4.845559 l 0.159744,0.532479 c -1.171454,2.236412 -2.342907,2.715643 -4.739063,4.31308 z"
             transform="scale(0.91228226,1.096152)" />
          <path
             id="path4262"
             style="fill:#d3bc5f;fill-opacity:1;font-style:normal;font-weight:normal;font-size:53.2478981px;line-height:125%;font-family:'Close to You';letter-spacing:0px;word-spacing:0px;stroke:none;stroke-width:1px;stroke-linecap:butt;stroke-linejoin:miter;stroke-opacity:1;font-variant:normal;font-stretch:normal;-inkscape-font-specification:'Close to You'"
             d="m 140.93437,-58.334823 c -1.70393,0.212991 -7.61445,9.797613 -8.25342,10.915819 -0.69223,1.064958 -2.6624,5.271542 -2.98189,6.176756 -0.47923,2.076668 -1.86367,5.537782 -1.97017,6.655987 -0.31949,-0.106495 -2.87538,1.331198 -3.99359,1.118206 l -1.54419,-0.212991 c -0.63897,-2.662395 -0.63897,-2.076668 1.38445,-4.153336 1.01171,-1.01171 2.71564,-1.437694 3.94034,-1.437694 l 1.54419,-0.425983 -0.42598,-0.585727 c -2.12992,0 -2.18317,0.106496 -3.62086,0.532479 -0.69222,0.212992 -2.5559,1.597437 -3.30137,1.650685 l 0.26624,0.479231 c -0.21299,0 -0.42598,0.106496 -0.69222,0.159744 l -1.59744,2.28966 c 0.21299,1.171453 -0.31949,3.194873 2.92863,3.194873 0.85197,0 0.1065,-0.05325 0.63898,0.106496 l 4.10009,-1.597437 -0.31949,6.230004 1.97017,-0.532479 c 0,-2.981882 0.31949,-7.720945 2.6624,-7.933936 L 131.403,-36.13045 c 2.18316,-0.212991 9.74436,-7.774193 11.44829,-9.478126 1.4377,-1.490941 3.9936,-3.727352 5.1118,-5.218294 0.85197,-1.118205 1.65069,-1.863676 2.34291,-2.822138 0.37274,-0.532479 1.43769,-2.02342 1.86368,-2.609147 0.58572,-0.745471 1.1182,-1.810429 1.86367,-2.768891 0.90522,-1.224701 0.47923,-1.597437 1.3312,-2.662395 1.38445,-2.02342 0.74547,-5.697525 -2.66239,-4.952054 -1.59744,0.372735 -5.2183,2.449403 -6.3365,3.194874 -1.01171,0.638974 -5.32479,4.04684 -5.43129,5.111798 z m -10.38334,21.991382 c 0.26624,-3.407866 4.84556,-13.578214 6.97547,-16.293857 2.12992,-2.609147 3.67411,-5.05855 6.12351,-7.561202 1.54419,-1.437693 6.01702,-4.952054 8.04044,-4.952054 l 0.15974,0 c 3.35462,0 0.63897,5.165046 -0.15974,6.602739 -0.37274,0.745471 -0.47924,1.064958 -0.79872,1.650685 -0.26624,0.638975 -0.79872,0.905214 -1.11821,1.544189 -0.69222,1.331198 -1.49094,2.02342 -1.97017,2.981882 -0.58573,1.224702 -10.33009,11.448299 -11.50155,11.608042 0.31949,0.798719 -4.73906,3.727353 -5.75077,4.419576 z"
             transform="scale(0.91228226,1.096152)" />
          <path
             id="path4264"
             style="fill:#d3bc5f;fill-opacity:1;font-style:normal;font-weight:normal;font-size:53.2478981px;line-height:125%;font-family:'Close to You';letter-spacing:0px;word-spacing:0px;stroke:none;stroke-width:1px;stroke-linecap:butt;stroke-linejoin:miter;stroke-opacity:1;font-variant:normal;font-stretch:normal;-inkscape-font-specification:'Close to You'"
             d="m 153.58324,-33.84079 c -3.30137,0.159744 -4.20659,2.715643 -6.3365,-0.319487 l 3.03513,-4.419576 0.0532,-0.692223 -0.95847,-0.319487 c -0.90521,1.331197 -2.92863,2.715643 -4.20658,3.780601 -0.58573,0.425983 -1.70393,1.277949 -2.4494,1.597437 -1.06496,0.532479 -2.02342,0.692222 -2.82214,1.064958 l -0.74547,-0.692223 c 0.21299,-2.609147 1.43769,-3.088378 2.71564,-5.005302 -0.21299,-0.106496 -0.63897,-0.532479 -0.74547,-0.532479 -1.2247,0 -4.79231,4.739062 -4.79231,5.80402 l 0,0.958463 c 1.54419,0.532479 -0.26624,1.384445 3.72735,0.479231 1.38445,-0.26624 3.08838,-1.224702 4.52607,-2.236412 0.85197,1.118206 -0.15974,1.916924 1.17146,2.822139 1.2247,0.74547 1.86367,-0.05325 3.83385,-0.159744 l 3.19487,-0.958462 0.0533,-0.05325 0.74547,-1.118206 z"
             transform="scale(0.91228226,1.096152)" />
          <path
             id="path4266"
             style="fill:#d3bc5f;fill-opacity:1;font-style:normal;font-weight:normal;font-size:53.2478981px;line-height:125%;font-family:'Close to You';letter-spacing:0px;word-spacing:0px;stroke:none;stroke-width:1px;stroke-linecap:butt;stroke-linejoin:miter;stroke-opacity:1;font-variant:normal;font-stretch:normal;-inkscape-font-specification:'Close to You'"
             d="m 190.66873,-41.135752 c 0.1065,-1.171454 4.52607,-8.200176 5.59103,-9.318382 2.07667,-2.396156 -0.21299,-2.502651 3.56761,-2.662395 0.95846,-0.05325 2.87539,-0.159744 5.75077,-0.159744 -0.95846,1.757181 -5.32479,5.218294 -6.92222,6.868979 -0.47923,0.532479 -6.76249,5.165046 -7.98719,5.271542 z m 9.15864,-14.163941 c 0.0532,-1.118206 4.47283,-5.697525 5.43129,-6.496244 0.69222,-0.585726 2.71564,-2.342907 3.19487,-2.715642 1.38445,-0.958463 3.40787,-1.27795 3.99359,-1.597437 0.31949,0.479231 0.63898,0.585727 0.63898,1.224701 l 0,0.212992 c 0,1.810428 -4.15334,8.200176 -5.91052,9.37163 l -2.12991,-0.106496 -1.54419,0.106496 -1.11821,-0.106496 -2.5559,0.106496 z m -1.59744,0 -1.17145,0.05325 -5.48453,0.106496 -0.21299,-0.05325 -2.34291,0.05325 -2.02342,-0.106496 -2.50265,0.05325 -1.86368,0 -0.85197,0.319487 c -1.1182,-0.74547 -0.26624,-0.319487 -0.95846,-0.319487 l -0.90521,0.106496 0,0.212991 -0.74547,-0.425983 c -1.17146,0.798719 -1.54419,0.05325 -2.02342,2.236412 l 2.82214,0.159743 4.73906,-0.05325 1.1182,-0.05325 0.31949,0.05325 2.87539,0.106495 3.03513,-0.159743 0.95846,0.05325 3.19487,-0.05325 c -1.01171,1.437693 -2.98188,3.461113 -3.62085,4.845558 -0.42599,0.905215 -2.23641,3.30137 -3.19488,4.845559 -0.90521,1.384445 -1.97017,4.153336 -3.19487,4.632567 -0.58573,0.26624 -5.75077,2.396156 -6.07026,2.609147 l 0.47923,0.638975 5.05855,-1.970172 c 0,0 0.15974,0.372735 0.15974,0.425983 0,0.106496 -0.95846,2.236412 -1.06495,2.555899 -0.53248,1.01171 -0.42599,0.851966 -0.53248,2.236412 2.12991,1.703933 2.98188,-2.183164 3.6741,-3.674105 1.54419,-3.620857 1.27795,-3.567609 4.68582,-5.271542 2.07667,-1.064958 4.15333,-3.141626 5.69752,-3.993592 0.85197,-0.425984 4.63257,-3.887097 5.43129,-4.046841 -0.37274,-0.638974 0.0532,-0.851966 0.95846,-0.905214 l -0.15974,-0.266239 1.01171,-0.905215 -0.26624,-0.212991 c 1.38444,-0.05325 1.2247,-1.597437 2.76889,-1.916925 0.37273,-0.05325 2.18316,0.05325 2.71564,0.05325 1.97017,0 3.62086,-0.106496 5.53778,-0.05325 l 2.5559,-0.05325 0.26624,0.05325 1.75718,-0.159743 2.5559,-0.106496 0.90521,0 0.90522,0 0.90521,0.05325 3.24813,-0.372736 c 1.33119,-1.01171 0.74547,-1.863676 -1.11821,-1.863676 -1.54419,0 -3.08838,0 -4.57932,0 -3.62086,0 -5.43129,0.319487 -6.65599,0.159744 l -1.86367,0.05325 -0.90522,0 -0.95846,0.106495 -3.62086,-0.106495 c 1.54419,-2.28966 6.17676,-6.230004 6.17676,-9.584622 0,-2.449403 -3.24812,-2.28966 -4.47282,-1.703933 -0.79872,0.372736 -2.12992,0.958462 -2.6624,1.384446 -0.42598,0.372735 -1.97017,1.597437 -2.34291,1.810428 -1.54419,0.958462 -7.82744,6.922227 -8.14693,8.413168 z"
             transform="scale(0.91228226,1.096152)" />
          <path
             id="path4268"
             style="fill:#d3bc5f;fill-opacity:1;font-style:normal;font-weight:normal;font-size:53.2478981px;line-height:125%;font-family:'Close to You';letter-spacing:0px;word-spacing:0px;stroke:none;stroke-width:1px;stroke-linecap:butt;stroke-linejoin:miter;stroke-opacity:1;font-variant:normal;font-stretch:normal;-inkscape-font-specification:'Close to You'"
             d="m 202.24766,-33.255063 c -2.02342,0.74547 -2.87539,0.106496 -4.47283,-0.958462 l 0.21299,-0.905215 1.59744,-0.532479 -0.26624,-0.425983 0.15975,0.212992 3.30137,-2.076668 c 0.10649,-1.490941 0.47923,-0.372735 1.49094,-1.544189 0.26624,-0.319488 0.47923,-1.224702 0.79872,-1.863677 l -0.42599,-0.479231 c -3.7806,0 -7.40146,2.928635 -8.67941,5.59103 -0.47923,0.958462 0.26624,1.544189 -1.2247,1.863676 -0.47923,0.05325 -1.70393,0.532479 -2.28966,0.745471 l -0.95846,1.224701 3.94035,-1.384445 0.90521,1.224702 -0.21299,0.159743 c 2.12991,0.159744 1.01171,1.01171 4.20658,0.585727 0.42599,-0.05325 1.06496,-0.266239 1.81043,-0.425983 l 0.1065,-1.01171 z m -4.25984,-2.609147 c 0.15975,-2.076668 1.97018,-4.100088 4.57932,-4.845559 l 0.15975,0.532479 c -1.17146,2.236412 -2.34291,2.715643 -4.73907,4.31308 z"
             transform="scale(0.91228226,1.096152)" />
          <path
             id="path4270"
             style="fill:#d3bc5f;fill-opacity:1;font-style:normal;font-weight:normal;font-size:53.2478981px;line-height:125%;font-family:'Close to You';letter-spacing:0px;word-spacing:0px;stroke:none;stroke-width:1px;stroke-linecap:butt;stroke-linejoin:miter;stroke-opacity:1;font-variant:normal;font-stretch:normal;-inkscape-font-specification:'Close to You'"
             d="m 230.81849,-33.627798 c -0.0532,0 -0.0532,0 -0.0532,0 l -2.28966,0.159743 -1.59744,-1.75718 1.2247,-4.31308 -0.26624,-0.05325 c -1.2247,0.106496 -4.20658,2.981882 -5.32479,3.674105 -0.15974,0.106496 -0.85196,0.212992 -1.06495,0.319487 -0.69223,0.26624 -0.47924,0.479231 -1.38445,0.905215 -1.70393,0.74547 -1.38445,1.224701 -2.71564,0.425983 1.2247,-2.236412 3.40786,-3.30137 2.66239,-4.685815 l -0.95846,-0.159744 c -1.3312,0.851966 -9.95736,6.123508 -9.95736,4.632567 0,-0.851966 1.65069,-2.02342 2.23641,-2.662395 0.74548,-0.905214 0.58573,-1.703932 0.90522,-2.449403 -1.75718,-0.159744 -3.03513,1.064958 -4.84556,1.970172 -1.38445,0.692223 -2.5559,1.27795 -3.7806,1.810429 l -2.07667,2.076668 c 2.39616,-1.064958 6.54949,-3.354618 7.5612,-3.407866 l -1.49094,1.703933 0.21299,0.212992 c -1.06495,0.106495 -2.07666,1.970172 -2.18316,3.141626 2.92863,1.437693 9.10539,-4.792311 10.70283,-4.100089 l -1.91693,2.928635 0.47923,1.171454 c 3.67411,0 8.67941,-4.100089 9.26514,-4.100089 0.95846,0 0.10649,-0.106495 0.74547,0.212992 -0.26624,0.425983 -0.47923,0.851966 -0.47923,1.224702 0,3.354617 2.82214,2.76889 4.57932,2.555899 0.74547,-0.106496 1.38444,0.05325 2.39615,-0.372735 l -0.58572,-1.064958 z"
             transform="scale(0.91228226,1.096152)" />
          <path
             id="path4272"
             style="fill:#d3bc5f;fill-opacity:1;font-style:normal;font-weight:normal;font-size:53.2478981px;line-height:125%;font-family:'Close to You';letter-spacing:0px;word-spacing:0px;stroke:none;stroke-width:1px;stroke-linecap:butt;stroke-linejoin:miter;stroke-opacity:1;font-variant:normal;font-stretch:normal;-inkscape-font-specification:'Close to You'"
             d="m 236.96196,-38.207118 1.1182,-1.118206 0.0532,-0.905214 -3.30137,0.106496 -1.49094,0 -2.18316,1.970172 2.07666,-0.05325 c 1.49095,-0.106495 1.22471,-0.106495 1.65069,0.905215 l -4.41958,2.236411 0.31949,0.479231 c -1.49094,0.159744 -7.29496,4.526072 -8.51966,5.537782 -1.17146,1.01171 -2.87539,2.129916 -4.04684,3.194874 -0.95847,0.851966 -2.44941,3.088378 -3.7806,3.407865 l -0.90522,0.958462 -0.10649,-0.159743 0.21299,0.425983 -0.21299,-0.212992 -2.5559,2.662395 -0.15975,-0.106496 c 0.37274,0.745471 -1.27795,1.544189 -1.65068,2.449404 -0.37274,0.692222 -1.54419,1.863676 -1.91693,2.449403 -1.33119,1.863676 -1.97017,3.727353 -1.97017,6.5494914 3.51436,5.3780377 9.79762,-4.6858154 11.28856,-4.7923104 l -0.15975,-0.212992 1.4377,-1.970172 0.90521,-0.905214 -0.1065,-0.159744 0.42599,0.266239 c 0.10649,-0.532479 4.52607,-6.017012 4.95205,-6.389747 0.15975,-0.212992 2.28966,-2.822139 2.39616,-3.194874 0.63897,-1.118206 1.70393,-2.28966 2.66239,-3.354618 1.81043,-2.236412 3.14163,-4.366328 5.2183,-6.709235 1.2247,-1.27795 0.63897,-1.490941 3.08837,-2.609147 0.26624,-0.212992 3.72736,-1.437693 3.8871,-1.437693 l 1.01171,0 c 0.58573,0 1.2247,0.692222 1.2247,0.851966 0,1.703933 -1.06496,1.064958 -1.2247,2.502651 -0.63897,-0.266239 -1.38444,0.958462 -2.28966,1.224702 -1.01171,0.425983 -1.70393,0.266239 -2.87538,0.106496 l -0.79872,-1.331198 c -0.58573,0.319488 -1.86368,0.851967 -1.86368,1.650685 l 0,0.26624 c 0,0.479231 0.74547,1.118205 1.11821,1.118205 l 2.18316,0 c 1.75718,0 5.80402,-3.620857 6.92223,-3.674105 0.31948,-1.224701 1.06495,-1.118205 1.33119,-2.555899 0.15975,-1.544189 -0.79871,-0.905214 -1.54418,-2.076668 -0.47924,0.212992 -3.19488,0.692223 -4.10009,1.171454 -1.06496,0.372735 -2.5559,1.331198 -3.30137,1.437693 z m -18.95625,13.631462 c 1.38444,-0.159743 2.28966,-1.970172 3.40786,-2.822138 0.47923,-0.212992 3.08838,-2.183164 3.40787,-2.502652 0.74547,-0.851966 6.54949,-4.685815 7.08197,-4.472823 0.15974,0.425983 -8.09368,10.702828 -9.58462,12.779496 -1.22471,1.544189 -8.46642,11.7145371 -10.27685,11.8742808 0.37274,0.9052143 -2.76889,2.609147 -3.62086,2.076668 -3.46111,-2.4494028 6.38975,-14.6431718 8.04044,-14.7496678 l -0.26624,-0.425983 1.17145,-0.692223 0.63898,-1.064958 z m 19.43548,-4.472823 c 0,0.159743 -0.15975,0.212991 -0.15975,0.319487 0.15975,0 0.0532,0 0.15975,-0.106496 l 0,0 0.10649,-0.212991 -0.10649,0 0,0 z"
             transform="scale(0.91228226,1.096152)" />
          <path
             id="path4274"
             style="fill:#d3bc5f;fill-opacity:1;font-style:normal;font-weight:normal;font-size:53.2478981px;line-height:125%;font-family:'Close to You';letter-spacing:0px;word-spacing:0px;stroke:none;stroke-width:1px;stroke-linecap:butt;stroke-linejoin:miter;stroke-opacity:1;font-variant:normal;font-stretch:normal;-inkscape-font-specification:'Close to You'"
             d="m 245.31024,-32.722584 c 0.85196,-0.372735 3.24812,-1.544189 4.25983,-2.183164 2.02342,-1.331197 6.92222,-4.792311 8.35992,-2.822139 0.85196,1.544189 -1.81043,4.57932 -3.72736,4.57932 l -0.15974,0 c -1.01171,0 -1.59744,-0.638975 -2.23641,-1.597437 l -1.70393,1.171453 c 0.15974,2.28966 1.01171,1.54419 3.46111,1.54419 0.63897,-0.425984 2.87539,-1.331198 4.31308,-2.236412 1.43769,-0.905214 2.12992,-2.28966 2.4494,-3.887097 l -0.42598,-1.064958 c -2.12992,-0.212991 -1.38445,-1.171454 -3.99359,-0.159743 -1.11821,0.425983 -2.76889,1.384445 -4.20659,2.183163 -1.27795,0.745471 -2.71564,1.970173 -3.94034,2.555899 -0.42598,0.212992 -1.43769,0.532479 -2.39616,0.851967 l -0.0532,1.064958 z"
             transform="scale(0.91228226,1.096152)" />
          <path
             id="path4276"
             style="fill:#d3bc5f;fill-opacity:1;font-style:normal;font-weight:normal;font-size:53.2478981px;line-height:125%;font-family:'Close to You';letter-spacing:0px;word-spacing:0px;stroke:none;stroke-width:1px;stroke-linecap:butt;stroke-linejoin:miter;stroke-opacity:1;font-variant:normal;font-stretch:normal;-inkscape-font-specification:'Close to You'"
             d="m 295.51385,-38.207118 1.11821,-1.118206 0.0532,-0.905214 -3.30137,0.106496 -1.49094,0 -2.18317,1.970172 2.07667,-0.05325 c 1.49094,-0.106495 1.2247,-0.106495 1.65068,0.905215 l -4.41957,2.236411 0.31949,0.479231 c -1.49095,0.159744 -7.29497,4.526072 -8.51967,5.537782 -1.17145,1.01171 -2.87538,2.129916 -4.04684,3.194874 -0.95846,0.851966 -2.4494,3.088378 -3.7806,3.407865 l -0.90521,0.958462 -0.1065,-0.159743 0.21299,0.425983 -0.21299,-0.212992 -2.5559,2.662395 -0.15974,-0.106496 c 0.37273,0.745471 -1.27795,1.544189 -1.65069,2.449404 -0.37273,0.692222 -1.54419,1.863676 -1.91692,2.449403 -1.3312,1.863676 -1.97017,3.727353 -1.97017,6.5494914 3.51436,5.3780377 9.79761,-4.6858154 11.28855,-4.7923104 l -0.15974,-0.212992 1.43769,-1.970172 0.90522,-0.905214 -0.1065,-0.159744 0.42598,0.266239 c 0.1065,-0.532479 4.52607,-6.017012 4.95206,-6.389747 0.15974,-0.212992 2.28966,-2.822139 2.39615,-3.194874 0.63898,-1.118206 1.70394,-2.28966 2.6624,-3.354618 1.81043,-2.236412 3.14162,-4.366328 5.21829,-6.709235 1.2247,-1.27795 0.63898,-1.490941 3.08838,-2.609147 0.26624,-0.212992 3.72735,-1.437693 3.8871,-1.437693 l 1.01171,0 c 0.58572,0 1.2247,0.692222 1.2247,0.851966 0,1.703933 -1.06496,1.064958 -1.2247,2.502651 -0.63898,-0.266239 -1.38445,0.958462 -2.28966,1.224702 -1.01171,0.425983 -1.70394,0.266239 -2.87539,0.106496 l -0.79872,-1.331198 c -0.58573,0.319488 -1.86367,0.851967 -1.86367,1.650685 l 0,0.26624 c 0,0.479231 0.74547,1.118205 1.1182,1.118205 l 2.18316,0 c 1.75719,0 5.80403,-3.620857 6.92223,-3.674105 0.31949,-1.224701 1.06496,-1.118205 1.3312,-2.555899 0.15974,-1.544189 -0.79872,-0.905214 -1.54419,-2.076668 -0.47923,0.212992 -3.19487,0.692223 -4.10009,1.171454 -1.06496,0.372735 -2.5559,1.331198 -3.30137,1.437693 z m -18.95625,13.631462 c 1.38445,-0.159743 2.28966,-1.970172 3.40787,-2.822138 0.47923,-0.212992 3.08837,-2.183164 3.40786,-2.502652 0.74547,-0.851966 6.54949,-4.685815 7.08197,-4.472823 0.15975,0.425983 -8.09368,10.702828 -9.58462,12.779496 -1.2247,1.544189 -8.46642,11.7145371 -10.27684,11.8742808 0.37273,0.9052143 -2.76889,2.609147 -3.62086,2.076668 -3.46111,-2.4494028 6.38975,-14.6431718 8.04043,-14.7496678 l -0.26624,-0.425983 1.17146,-0.692223 0.63897,-1.064958 z m 19.43548,-4.472823 c 0,0.159743 -0.15974,0.212991 -0.15974,0.319487 0.15974,0 0.0532,0 0.15974,-0.106496 l 0,0 0.1065,-0.212991 -0.1065,0 0,0 z"
             transform="scale(0.91228226,1.096152)" />
          <path
             id="path4278"
             style="fill:#d3bc5f;fill-opacity:1;font-style:normal;font-weight:normal;font-size:53.2478981px;line-height:125%;font-family:'Close to You';letter-spacing:0px;word-spacing:0px;stroke:none;stroke-width:1px;stroke-linecap:butt;stroke-linejoin:miter;stroke-opacity:1;font-variant:normal;font-stretch:normal;-inkscape-font-specification:'Close to You'"
             d="m 316.74811,-33.521303 c -1.81043,0.692223 -2.34291,-0.212991 -3.62086,-0.372735 l -0.85197,-2.236412 c -1.38444,0.106496 -1.59743,1.544189 -3.35461,2.183164 -2.28966,0.798719 -1.86368,0.638975 -3.35462,-0.372735 1.1182,-2.28966 0.53248,-2.555899 2.82214,-4.31308 1.38444,-0.958462 3.6741,-2.236412 4.63256,-0.905214 l -1.43769,1.757181 c 0.42598,0.319487 0.42598,0.479231 0.90522,0.479231 l 0.21299,0 c 0.58572,0 1.43769,-1.01171 1.81043,-1.437694 0.58572,-0.532479 0.42598,-0.958462 0.47923,-2.02342 l -0.42599,-0.479231 c -3.88709,0 -5.27154,0.905214 -7.61445,2.822139 -1.06495,0.798718 -2.07666,1.703932 -2.76889,2.928634 -0.69222,1.331198 -0.63897,3.727353 0.90522,3.727353 l 1.17145,0 c 1.43769,0 2.71564,-1.810429 4.36633,-1.863676 0.15974,0.798718 0.53248,1.863676 1.86368,1.863676 l 1.1182,0 c 0.95846,0 2.23641,-0.425983 3.40787,-0.905214 l -0.26624,-0.851967 z"
             transform="scale(0.91228226,1.096152)" />
          <path
             id="path4280"
             style="fill:#d3bc5f;fill-opacity:1;font-style:normal;font-weight:normal;font-size:53.2478981px;line-height:125%;font-family:'Close to You';letter-spacing:0px;word-spacing:0px;stroke:none;stroke-width:1px;stroke-linecap:butt;stroke-linejoin:miter;stroke-opacity:1;font-variant:normal;font-stretch:normal;-inkscape-font-specification:'Close to You'"
             d="m 316.5501,-32.722584 c 0.85197,-0.372735 3.24813,-1.544189 4.25984,-2.183164 2.02342,-1.331197 6.92222,-4.792311 8.35992,-2.822139 0.85196,1.544189 -1.81043,4.57932 -3.72736,4.57932 l -0.15974,0 c -1.01171,0 -1.59744,-0.638975 -2.23641,-1.597437 l -1.70394,1.171453 c 0.15975,2.28966 1.01171,1.54419 3.46112,1.54419 0.63897,-0.425984 2.87538,-1.331198 4.31308,-2.236412 1.43769,-0.905214 2.12991,-2.28966 2.4494,-3.887097 l -0.42598,-1.064958 c -2.12992,-0.212991 -1.38445,-1.171454 -3.99359,-0.159743 -1.11821,0.425983 -2.7689,1.384445 -4.20659,2.183163 -1.27795,0.745471 -2.71564,1.970173 -3.94034,2.555899 -0.42599,0.212992 -1.4377,0.532479 -2.39616,0.851967 l -0.0532,1.064958 z"
             transform="scale(0.91228226,1.096152)" />
          <path
             id="path4282"
             style="fill:#d3bc5f;fill-opacity:1;font-style:normal;font-weight:normal;font-size:53.2478981px;line-height:125%;font-family:'Close to You';letter-spacing:0px;word-spacing:0px;stroke:none;stroke-width:1px;stroke-linecap:butt;stroke-linejoin:miter;stroke-opacity:1;font-variant:normal;font-stretch:normal;-inkscape-font-specification:'Close to You'"
             d="m 330.48608,-32.722584 c 0.85196,-0.372735 3.24812,-1.544189 4.25983,-2.183164 2.02342,-1.331197 6.92223,-4.792311 8.35992,-2.822139 0.85197,1.544189 -1.81043,4.57932 -3.72735,4.57932 l -0.15975,0 c -1.01171,0 -1.59743,-0.638975 -2.23641,-1.597437 l -1.70393,1.171453 c 0.15974,2.28966 1.01171,1.54419 3.46111,1.54419 0.63898,-0.425984 2.87539,-1.331198 4.31308,-2.236412 1.4377,-0.905214 2.12992,-2.28966 2.44941,-3.887097 l -0.42599,-1.064958 c -2.12991,-0.212991 -1.38444,-1.171454 -3.99359,-0.159743 -1.11821,0.425983 -2.76889,1.384445 -4.20658,2.183163 -1.27795,0.745471 -2.71565,1.970173 -3.94035,2.555899 -0.42598,0.212992 -1.43769,0.532479 -2.39615,0.851967 l -0.0532,1.064958 z"
             transform="scale(0.91228226,1.096152)" />
          <path
             id="path4284"
             style="fill:#d3bc5f;fill-opacity:1;font-style:normal;font-weight:normal;font-size:53.2478981px;line-height:125%;font-family:'Close to You';letter-spacing:0px;word-spacing:0px;stroke:none;stroke-width:1px;stroke-linecap:butt;stroke-linejoin:miter;stroke-opacity:1;font-variant:normal;font-stretch:normal;-inkscape-font-specification:'Close to You'"
             d="m 356.16735,-33.255063 c -2.02342,0.74547 -2.87539,0.106496 -4.47282,-0.958462 l 0.21299,-0.905215 1.59743,-0.532479 -0.26623,-0.425983 0.15974,0.212992 3.30137,-2.076668 c 0.10649,-1.490941 0.47923,-0.372735 1.49094,-1.544189 0.26624,-0.319488 0.47923,-1.224702 0.79872,-1.863677 l -0.42598,-0.479231 c -3.78061,0 -7.40146,2.928635 -8.67941,5.59103 -0.47923,0.958462 0.26624,1.544189 -1.2247,1.863676 -0.47924,0.05325 -1.70394,0.532479 -2.28966,0.745471 l -0.95847,1.224701 3.94035,-1.384445 0.90521,1.224702 -0.21299,0.159743 c 2.12992,0.159744 1.01171,1.01171 4.20659,0.585727 0.42598,-0.05325 1.06495,-0.266239 1.81042,-0.425983 l 0.1065,-1.01171 z m -4.25983,-2.609147 c 0.15974,-2.076668 1.97017,-4.100088 4.57932,-4.845559 l 0.15974,0.532479 c -1.17145,2.236412 -2.34291,2.715643 -4.73906,4.31308 z"
             transform="scale(0.91228226,1.096152)" />
          <path
             id="path4286"
             style="fill:#d3bc5f;fill-opacity:1;font-style:normal;font-weight:normal;font-size:53.2478981px;line-height:125%;font-family:'Close to You';letter-spacing:0px;word-spacing:0px;stroke:none;stroke-width:1px;stroke-linecap:butt;stroke-linejoin:miter;stroke-opacity:1;font-variant:normal;font-stretch:normal;-inkscape-font-specification:'Close to You'"
             d="m 363.34252,-38.368109 5.48599,0 0,4.471991 -4.26399,8.319984 -3.35399,0 2.13199,-8.319984 0,-4.471991 z"
             transform="scale(0.91228226,1.096152)" />
          <g
             id="text4187"
             style="font-style:normal;font-weight:normal;font-size:53.2478981px;line-height:125%;font-family:sans-serif;letter-spacing:0px;word-spacing:0px;fill:#d3bc5f;fill-opacity:1;stroke:none;stroke-width:1px;stroke-linecap:butt;stroke-linejoin:miter;stroke-opacity:1"
             transform="scale(0.91228225,1.096152)">
            <path
               id="path4207"
               style="font-style:normal;font-variant:normal;font-weight:normal;font-stretch:normal;font-family:'Close to You';-inkscape-font-specification:'Close to You';fill:#d3bc5f"
               d="m 96.190806,4.5813726 1.118205,-1.1182058 0.05325,-0.9052143 -3.301369,0.1064958 -1.490941,0 -2.183164,1.9701722 2.076668,-0.053248 c 1.490941,-0.1064958 1.224701,-0.1064958 1.650685,0.9052143 l -4.419576,2.2364117 0.319487,0.4792311 c -1.490941,0.1597437 -7.294962,4.5260713 -8.519663,5.5377813 -1.171454,1.01171 -2.875387,2.129916 -4.046841,3.194874 -0.958462,0.851966 -2.449403,3.088378 -3.7806,3.407865 l -0.905215,0.958463 -0.106495,-0.159744 0.212991,0.425983 -0.212991,-0.212991 -2.555899,2.662394 -0.159744,-0.106495 c 0.372735,0.74547 -1.27795,1.544189 -1.650685,2.449403 -0.372735,0.692223 -1.544189,1.863676 -1.916924,2.449403 -1.331198,1.863677 -1.970173,3.727353 -1.970173,6.549492 3.514362,5.378037 9.797614,-4.685815 11.288555,-4.792311 l -0.159744,-0.212992 1.437693,-1.970172 0.905215,-0.905214 -0.106496,-0.159744 0.425983,0.26624 c 0.106496,-0.532479 4.526071,-6.017013 4.952055,-6.389748 0.159743,-0.212992 2.289659,-2.822139 2.396155,-3.194874 0.638975,-1.118206 1.703933,-2.28966 2.662395,-3.354618 1.810428,-2.236411 3.141626,-4.366327 5.218294,-6.7092348 1.224702,-1.2779496 0.638975,-1.4909412 3.088378,-2.609147 0.26624,-0.2129916 3.727357,-1.4376933 3.887097,-1.4376933 l 1.01171,0 c 0.58573,0 1.2247,0.6922227 1.2247,0.8519664 0,1.7039327 -1.06496,1.064958 -1.2247,2.5026512 -0.63898,-0.2662395 -1.38445,0.9584622 -2.28966,1.2247017 -1.01171,0.4259832 -1.703933,0.2662395 -2.875386,0.1064958 L 95.445335,7.2437675 c -0.585727,0.3194874 -1.863676,0.8519664 -1.863676,1.6506849 l 0,0.2662395 c 0,0.479231 0.74547,1.1182061 1.118205,1.1182061 l 2.183164,0 c 1.757181,0 5.804022,-3.6208574 6.922232,-3.6741053 0.31948,-1.2247016 1.06495,-1.1182058 1.33119,-2.5558991 0.15975,-1.544189 -0.79872,-0.9052142 -1.54419,-2.076668 -0.47923,0.2129916 -3.19487,0.6922227 -4.100085,1.1714538 -1.064958,0.3727353 -2.555899,1.3311974 -3.301369,1.4376932 z M 77.234554,18.212835 c 1.384445,-0.159744 2.28966,-1.970173 3.407865,-2.822139 0.479231,-0.212992 3.088378,-2.183164 3.407866,-2.502651 0.74547,-0.851967 6.549491,-4.6858153 7.08197,-4.4728237 0.159744,0.4259832 -8.09368,10.7028277 -9.584621,12.7794957 -1.224702,1.544189 -8.466416,11.714537 -10.276845,11.874281 0.372736,0.905214 -2.76889,2.609147 -3.620857,2.076668 -3.461113,-2.449403 6.389748,-14.643172 8.040433,-14.749668 l -0.26624,-0.425983 1.171454,-0.692223 0.638975,-1.064957 z m 19.435483,-4.472824 c 0,0.159744 -0.159744,0.212992 -0.159744,0.319487 0.159744,0 0.05325,0 0.159744,-0.106495 l 0,0 0.106496,-0.212992 -0.106496,0 0,0 z" />
            <path
               id="path4209"
               style="font-style:normal;font-variant:normal;font-weight:normal;font-stretch:normal;font-family:'Close to You';-inkscape-font-specification:'Close to You';fill:#d3bc5f"
               d="m 121.57841,2.9306878 -6.443,0 -0.85197,0 -1.2247,0 c -2.71564,-0.1064958 -7.6677,2.8753865 -7.6677,6.2300041 0,0.5324789 0.42599,0.6389747 0.63898,1.3844451 l 1.01171,0.479231 c 5.53778,-1.1182056 5.43129,-2.6623946 7.6677,-6.4429954 l 2.92863,0.1064958 1.91693,0.053248 2.02342,-1.8104285 z m -12.673,6.6559872 c -0.37274,-0.479231 -1.06496,-0.2129916 -1.17146,-1.4909411 0,-0.532479 0.42599,-1.2247017 0.85197,-1.9169243 0.63897,-1.064958 2.82214,-1.9169244 3.8871,-2.609147 l 1.01171,1.4376932 c -0.74548,1.1182059 -0.213,1.3844454 -1.65069,2.7156428 -1.75718,1.5974369 -1.70393,1.064958 -2.92863,1.8636764 z m 2.82213,1.650685 0.0532,0 0,-0.106496 -0.10649,0 0.0532,0.106496 z" />
            <path
               id="path4211"
               style="font-style:normal;font-variant:normal;font-weight:normal;font-stretch:normal;font-family:'Close to You';-inkscape-font-specification:'Close to You';fill:#d3bc5f"
               d="m 133.86785,8.9477003 c -3.30137,0.1597437 -4.20658,2.7156427 -6.3365,-0.3194874 l 3.03513,-4.4195756 0.0532,-0.6922226 -0.95846,-0.3194874 c -0.90521,1.3311974 -2.92863,2.7156428 -4.20658,3.7806007 -0.58573,0.4259832 -1.70394,1.2779496 -2.44941,1.597437 -1.06495,0.532479 -2.02342,0.6922226 -2.82214,1.0649579 l -0.74547,-0.6922226 c 0.213,-2.609147 1.4377,-3.0883781 2.71565,-5.0053025 -0.21299,-0.1064958 -0.63898,-0.5324789 -0.74547,-0.5324789 -1.22471,0 -4.79231,4.7390629 -4.79231,5.8040209 l 0,0.9584622 c 1.54418,0.532479 -0.26624,1.384445 3.72735,0.479231 1.38444,-0.266239 3.08838,-1.2247017 4.52607,-2.2364117 0.85197,1.1182058 -0.15974,1.9169247 1.17145,2.8221387 1.2247,0.74547 1.86368,-0.05325 3.83385,-0.159744 l 3.19488,-0.958462 0.0532,-0.05325 0.74547,-1.1182057 z" />
            <path
               id="path4213"
               style="font-style:normal;font-variant:normal;font-weight:normal;font-stretch:normal;font-family:'Close to You';-inkscape-font-specification:'Close to You';fill:#d3bc5f"
               d="m 139.3474,3.1969273 c 0.42598,1.0649579 -1.06496,0.3727353 0,1.9701722 -1.70394,0.8519664 -3.46112,2.1831638 -5.05855,3.0351302 -0.63898,0.3194874 -1.49095,0.7454706 -2.02343,0.9052143 -0.63897,0.2662394 -2.55589,1.064958 -2.55589,1.224702 0,0.851966 -0.0532,0.05325 0.26624,0.74547 l 8.25342,-4.100088 -0.26624,-0.4259832 c 1.59744,-0.1597436 0.85197,-1.1182058 2.66239,-1.01171 1.22471,0.053248 2.23642,-0.1597437 2.98189,0.053248 -1.4377,2.076668 -3.62086,2.3961554 -1.59744,5.4312853 2.28966,0 2.28966,0.106496 4.36633,-0.692222 l 0.10649,-1.0649584 c -0.74547,0.2662395 -1.38444,0.532479 -1.54419,0.6389748 -1.01171,-0.6922226 -2.02342,-0.7454705 -1.43769,-2.4494033 0.31949,-1.0117101 2.12992,-2.3429075 2.98188,-2.9286344 -0.90521,-1.3311974 -0.26624,-0.9052143 -1.54419,-0.9052143 l -0.69222,-0.053248 -1.49094,0.1064957 1.70393,-2.71564276 C 141.58381,0.69427605 140.73184,3.0904315 139.3474,3.1969273 Z" />
            <path
               id="path4215"
               style="font-style:normal;font-variant:normal;font-weight:normal;font-stretch:normal;font-family:'Close to You';-inkscape-font-specification:'Close to You';fill:#d3bc5f"
               d="m 188.10167,5.2203474 c -0.42599,0.053248 -0.95847,0.1064958 -1.2247,0 1.01171,-1.9701722 2.23641,-3.9403445 -1.11821,-2.1831638 l 0.21299,0.4259832 c -1.11821,0.1064958 -1.11821,0.5324789 -1.54419,1.2247016 -0.42598,0.8519664 -0.0532,1.2247017 0,2.2896596 -1.59744,0.5857269 -2.4494,3.194874 -4.73906,1.9701723 0,-1.8104286 1.86368,-5.0585504 3.30137,-5.271542 -0.21299,-0.2662394 -0.21299,-1.2247016 -0.79872,-1.2247016 -0.31949,0 -6.443,3.0883781 -6.70924,3.4611134 1.54419,0.7987184 1.91693,-0.5857269 3.51437,-0.6922227 -0.90522,1.2779495 -2.07667,2.5026512 -1.70394,4.3663276 0.42599,2.129916 3.03513,1.064958 4.25984,0.425983 3.5676,-1.7571804 3.03513,-3.2481216 6.17675,-3.9935921 l 0.37274,-0.7987185 z" />
            <path
               id="path4217"
               style="font-style:normal;font-variant:normal;font-weight:normal;font-stretch:normal;font-family:'Close to You';-inkscape-font-specification:'Close to You';fill:#d3bc5f"
               d="m 205.19424,2.9306878 -6.44299,0 -0.85197,0 -1.2247,0 c -2.71565,-0.1064958 -7.6677,2.8753865 -7.6677,6.2300041 0,0.5324789 0.42598,0.6389747 0.63897,1.3844451 l 1.01171,0.479231 c 5.53779,-1.1182056 5.43129,-2.6623946 7.6677,-6.4429954 l 2.92864,0.1064958 1.91692,0.053248 2.02342,-1.8104285 z m -12.673,6.6559872 c -0.37273,-0.479231 -1.06496,-0.2129916 -1.17145,-1.4909411 0,-0.532479 0.42598,-1.2247017 0.85196,-1.9169243 0.63898,-1.064958 2.82214,-1.9169244 3.8871,-2.609147 l 1.01171,1.4376932 c -0.74547,1.1182059 -0.21299,1.3844454 -1.65068,2.7156428 -1.75718,1.5974369 -1.70394,1.064958 -2.92864,1.8636764 z m 2.82214,1.650685 0.0532,0 0,-0.106496 -0.1065,0 0.0532,0.106496 z" />
            <path
               id="path4219"
               style="font-style:normal;font-variant:normal;font-weight:normal;font-stretch:normal;font-family:'Close to You';-inkscape-font-specification:'Close to You';fill:#d3bc5f"
               d="m 208.69779,-0.26418611 1.06496,1.06495796 0.85197,-0.26623949 -0.0532,-0.15974369 0.37273,-0.31948739 0.90522,-1.81042858 -0.31949,-0.8519663 -0.69222,-0.2662395 c -1.97017,1.3311974 -0.85197,-0.053248 -2.12992,2.60914699 z m -8.83915,9.47812591 c 0.69222,-0.3194874 4.79231,-2.5026513 4.89881,-2.5558992 l -0.37274,3.141626 c 1.75718,1.1714534 1.65069,1.3844454 3.56761,0.9584624 1.11821,-0.26624 2.71564,-0.585727 4.10009,-1.2247019 l 0.15974,-0.9584621 c -1.17145,0.532479 -2.3429,0.9584621 -3.08837,0.9584621 -1.38445,0 -1.54419,-0.479231 -2.71565,-1.2247016 l 1.75718,-4.206584 -0.95846,-0.7454705 c -0.85197,1.2779495 -4.79231,3.8870965 -7.77419,5.1650461 l 0.42598,0.6922227 z" />
            <path
               id="path4221"
               style="font-style:normal;font-variant:normal;font-weight:normal;font-stretch:normal;font-family:'Close to You';-inkscape-font-specification:'Close to You';fill:#d3bc5f"
               d="m 217.97124,3.1969273 c 0.42598,1.0649579 -1.06496,0.3727353 0,1.9701722 -1.70393,0.8519664 -3.46111,2.1831638 -5.05855,3.0351302 -0.63898,0.3194874 -1.49094,0.7454706 -2.02342,0.9052143 -0.63898,0.2662394 -2.5559,1.064958 -2.5559,1.224702 0,0.851966 -0.0532,0.05325 0.26624,0.74547 l 8.25342,-4.100088 -0.26624,-0.4259832 c 1.59744,-0.1597436 0.85197,-1.1182058 2.6624,-1.01171 1.2247,0.053248 2.23641,-0.1597437 2.98188,0.053248 -1.43769,2.076668 -3.62086,2.3961554 -1.59744,5.4312853 2.28966,0 2.28966,0.106496 4.36633,-0.692222 l 0.1065,-1.0649584 c -0.74547,0.2662395 -1.38445,0.532479 -1.54419,0.6389748 -1.01171,-0.6922226 -2.02342,-0.7454705 -1.43769,-2.4494033 0.31948,-1.0117101 2.12991,-2.3429075 2.98188,-2.9286344 -0.90522,-1.3311974 -0.26624,-0.9052143 -1.54419,-0.9052143 l -0.69222,-0.053248 -1.49095,0.1064957 1.70394,-2.71564276 c -2.87539,-0.26623949 -3.72736,2.12991596 -5.1118,2.23641176 z" />
            <path
               id="path4223"
               style="font-style:normal;font-variant:normal;font-weight:normal;font-stretch:normal;font-family:'Close to You';-inkscape-font-specification:'Close to You';fill:#d3bc5f"
               d="m 261.13449,4.5813726 1.1182,-1.1182058 0.0533,-0.9052143 -3.30137,0.1064958 -1.49094,0 -2.18317,1.9701722 2.07667,-0.053248 c 1.49094,-0.1064958 1.2247,-0.1064958 1.65069,0.9052143 l -4.41958,2.2364117 0.31949,0.4792311 c -1.49094,0.1597437 -7.29496,4.5260713 -8.51966,5.5377813 -1.17146,1.01171 -2.87539,2.129916 -4.04684,3.194874 -0.95847,0.851966 -2.44941,3.088378 -3.78061,3.407865 l -0.90521,0.958463 -0.1065,-0.159744 0.213,0.425983 -0.213,-0.212991 -2.55589,2.662394 -0.15975,-0.106495 c 0.37274,0.74547 -1.27795,1.544189 -1.65068,2.449403 -0.37274,0.692223 -1.54419,1.863676 -1.91693,2.449403 -1.33119,1.863677 -1.97017,3.727353 -1.97017,6.549492 3.51436,5.378037 9.79761,-4.685815 11.28855,-4.792311 l -0.15974,-0.212992 1.43769,-1.970172 0.90522,-0.905214 -0.1065,-0.159744 0.42599,0.26624 c 0.10649,-0.532479 4.52607,-6.017013 4.95205,-6.389748 0.15974,-0.212992 2.28966,-2.822139 2.39616,-3.194874 0.63897,-1.118206 1.70393,-2.28966 2.66239,-3.354618 1.81043,-2.236411 3.14163,-4.366327 5.21829,-6.7092348 1.22471,-1.2779496 0.63898,-1.4909412 3.08838,-2.609147 0.26624,-0.2129916 3.72736,-1.4376933 3.8871,-1.4376933 l 1.01171,0 c 0.58573,0 1.2247,0.6922227 1.2247,0.8519664 0,1.7039327 -1.06496,1.064958 -1.2247,2.5026512 -0.63898,-0.2662395 -1.38445,0.9584622 -2.28966,1.2247017 -1.01171,0.4259832 -1.70393,0.2662395 -2.87539,0.1064958 l -0.79872,-1.3311975 c -0.58572,0.3194874 -1.86367,0.8519664 -1.86367,1.6506849 l 0,0.2662395 c 0,0.479231 0.74547,1.1182061 1.1182,1.1182061 l 2.18317,0 c 1.75718,0 5.80402,-3.6208574 6.92222,-3.6741053 0.31949,-1.2247016 1.06496,-1.1182058 1.3312,-2.5558991 0.15975,-1.544189 -0.79872,-0.9052142 -1.54419,-2.076668 -0.47923,0.2129916 -3.19487,0.6922227 -4.10008,1.1714538 -1.06496,0.3727353 -2.5559,1.3311974 -3.30137,1.4376932 z M 242.17823,18.212835 c 1.38445,-0.159744 2.28966,-1.970173 3.40787,-2.822139 0.47923,-0.212992 3.08838,-2.183164 3.40786,-2.502651 0.74548,-0.851967 6.5495,-4.6858153 7.08198,-4.4728237 0.15974,0.4259832 -8.09369,10.7028277 -9.58463,12.7794957 -1.2247,1.544189 -8.46641,11.714537 -10.27684,11.874281 0.37273,0.905214 -2.76889,2.609147 -3.62086,2.076668 -3.46111,-2.449403 6.38975,-14.643172 8.04043,-14.749668 l -0.26623,-0.425983 1.17145,-0.692223 0.63897,-1.064957 z m 19.43549,-4.472824 c 0,0.159744 -0.15975,0.212992 -0.15975,0.319487 0.15975,0 0.0532,0 0.15975,-0.106495 l 0,0 0.10649,-0.212992 -0.10649,0 0,0 z" />
            <path
               id="path4225"
               style="font-style:normal;font-variant:normal;font-weight:normal;font-stretch:normal;font-family:'Close to You';-inkscape-font-specification:'Close to You';fill:#d3bc5f"
               d="m 282.36876,9.2671876 c -1.81043,0.6922227 -2.34291,-0.2129915 -3.62086,-0.3727352 l -0.85197,-2.2364118 c -1.38444,0.1064958 -1.59743,1.5441891 -3.35462,2.1831639 -2.28966,0.7987184 -1.86367,0.6389747 -3.35461,-0.3727353 1.1182,-2.2896596 0.53248,-2.5558991 2.82214,-4.3130798 1.38444,-0.9584621 3.6741,-2.2364117 4.63256,-0.9052142 l -1.43769,1.7571806 c 0.42598,0.3194874 0.42598,0.4792311 0.90521,0.4792311 l 0.213,0 c 0.58572,0 1.43769,-1.0117101 1.81042,-1.4376933 0.58573,-0.5324789 0.42599,-0.9584621 0.47923,-2.0234201 l -0.42598,-0.4792311 c -3.88709,0 -5.27154,0.9052143 -7.61445,2.8221386 -1.06496,0.7987185 -2.07667,1.7039328 -2.76889,2.9286344 -0.69222,1.3311975 -0.63897,3.7273526 0.90522,3.7273526 l 1.17145,0 c 1.43769,0 2.71564,-1.8104282 4.36633,-1.8636761 0.15974,0.7987184 0.53248,1.8636761 1.86367,1.8636761 l 1.11821,0 c 0.95846,0 2.23641,-0.425983 3.40786,-0.905214 l -0.26623,-0.8519664 z" />
            <path
               id="path4227"
               style="font-style:normal;font-variant:normal;font-weight:normal;font-stretch:normal;font-family:'Close to You';-inkscape-font-specification:'Close to You';fill:#d3bc5f"
               d="m 282.17074,10.065906 c 0.85196,-0.3727352 3.24812,-1.5441889 4.25983,-2.1831637 2.02342,-1.3311975 6.92223,-4.7923108 8.35992,-2.8221386 0.85197,1.544189 -1.81043,4.5793192 -3.72735,4.5793192 l -0.15975,0 c -1.01171,0 -1.59743,-0.6389747 -2.23641,-1.5974369 l -1.70393,1.1714538 c 0.15974,2.2896592 1.01171,1.5441892 3.46111,1.5441892 0.63898,-0.425983 2.87539,-1.3311977 4.31308,-2.2364119 1.43769,-0.9052143 2.12992,-2.2896596 2.4494,-3.8870966 l -0.42598,-1.0649579 c -2.12991,-0.2129916 -1.38444,-1.1714538 -3.99359,-0.1597437 -1.11821,0.4259831 -2.76889,1.3844453 -4.20659,2.1831638 -1.27794,0.7454706 -2.71564,1.9701722 -3.94034,2.5558991 -0.42598,0.2129916 -1.43769,0.532479 -2.39616,0.8519664 l -0.0532,1.0649578 z" />
            <path
               id="path4229"
               style="font-style:normal;font-variant:normal;font-weight:normal;font-stretch:normal;font-family:'Close to You';-inkscape-font-specification:'Close to You';fill:#d3bc5f"
               d="m 296.10671,10.065906 c 0.85197,-0.3727352 3.24812,-1.5441889 4.25983,-2.1831637 2.02342,-1.3311975 6.92223,-4.7923108 8.35992,-2.8221386 0.85197,1.544189 -1.81043,4.5793192 -3.72735,4.5793192 l -0.15974,0 c -1.01171,0 -1.59744,-0.6389747 -2.23642,-1.5974369 l -1.70393,1.1714538 c 0.15975,2.2896592 1.01171,1.5441892 3.46112,1.5441892 0.63897,-0.425983 2.87538,-1.3311977 4.31308,-2.2364119 1.43769,-0.9052143 2.12991,-2.2896596 2.4494,-3.8870966 l -0.42598,-1.0649579 c -2.12992,-0.2129916 -1.38445,-1.1714538 -3.9936,-0.1597437 -1.1182,0.4259831 -2.76889,1.3844453 -4.20658,2.1831638 -1.27795,0.7454706 -2.71564,1.9701722 -3.94035,2.5558991 -0.42598,0.2129916 -1.43769,0.532479 -2.39615,0.8519664 l -0.0532,1.0649578 z" />
            <path
               id="path4231"
               style="font-style:normal;font-variant:normal;font-weight:normal;font-stretch:normal;font-family:'Close to You';-inkscape-font-specification:'Close to You';fill:#d3bc5f"
               d="m 321.788,9.5334271 c -2.02342,0.7454709 -2.87539,0.1064958 -4.47283,-0.9584621 l 0.213,-0.9052143 1.59743,-0.532479 -0.26624,-0.4259832 0.15975,0.2129916 3.30137,-2.076668 c 0.10649,-1.4909411 0.47923,-0.3727353 1.49094,-1.544189 0.26624,-0.3194874 0.47923,-1.2247017 0.79872,-1.8636765 l -0.42599,-0.47923106 c -3.7806,0 -7.40145,2.92863436 -8.6794,5.59102926 -0.47924,0.9584622 0.26624,1.5441891 -1.22471,1.8636765 -0.47923,0.053248 -1.70393,0.532479 -2.28966,0.7454706 l -0.95846,1.2247021 3.94035,-1.3844458 0.90521,1.2247018 -0.21299,0.159744 c 2.12992,0.159743 1.01171,1.01171 4.20658,0.585726 0.42599,-0.05325 1.06496,-0.266239 1.81043,-0.425983 l 0.1065,-1.0117099 z m -4.25983,-2.609147 c 0.15974,-2.076668 1.97017,-4.1000881 4.57932,-4.8455587 l 0.15974,0.532479 c -1.17145,2.2364117 -2.34291,2.7156428 -4.73906,4.3130797 z" />
            <path
               id="path4233"
               style="font-style:normal;font-variant:normal;font-weight:normal;font-stretch:normal;font-family:'Close to You';-inkscape-font-specification:'Close to You';fill:#d3bc5f"
               d="m 332.78702,3.1969273 c 0.42598,1.0649579 -1.06496,0.3727353 0,1.9701722 -1.70393,0.8519664 -3.46111,2.1831638 -5.05855,3.0351302 -0.63897,0.3194874 -1.49094,0.7454706 -2.02342,0.9052143 -0.63898,0.2662394 -2.5559,1.064958 -2.5559,1.224702 0,0.851966 -0.0533,0.05325 0.26624,0.74547 l 8.25342,-4.100088 -0.26624,-0.4259832 c 1.59744,-0.1597436 0.85197,-1.1182058 2.6624,-1.01171 1.2247,0.053248 2.23641,-0.1597437 2.98188,0.053248 -1.43769,2.076668 -3.62086,2.3961554 -1.59743,5.4312853 2.28965,0 2.28965,0.106496 4.36632,-0.692222 l 0.1065,-1.0649584 c -0.74547,0.2662395 -1.38445,0.532479 -1.54419,0.6389748 -1.01171,-0.6922226 -2.02342,-0.7454705 -1.43769,-2.4494033 0.31948,-1.0117101 2.12991,-2.3429075 2.98188,-2.9286344 -0.90522,-1.3311974 -0.26624,-0.9052143 -1.54419,-0.9052143 l -0.69222,-0.053248 -1.49094,0.1064957 1.70393,-2.71564276 c -2.87539,-0.26623949 -3.72735,2.12991596 -5.1118,2.23641176 z" />
            <path
               id="path4235"
               style="font-style:normal;font-variant:normal;font-weight:normal;font-stretch:normal;font-family:'Close to You';-inkscape-font-specification:'Close to You';fill:#d3bc5f"
               d="m 389.04925,-19.380182 -2.5559,1.597437 0.21299,0.372736 -0.21299,-0.159744 -2.71564,2.875387 -1.3312,0.958462 c 0.42598,0.905214 -4.73906,5.1650458 -4.25983,6.3897474 l -0.53248,0 c 0.21299,0.6389748 -1.38445,2.609147 -1.91693,3.7273529 -0.42598,0.9052143 -1.1182,2.3429075 -1.86367,4.04684026 -0.42599,1.11820584 -0.90522,2.55589914 -1.3312,3.67410494 -0.26624,0.532479 -2.66239,1.3844454 -3.6741,1.5441891 l 0.47923,0.7454706 c 0.63897,-0.2129916 2.3429,-1.0117101 2.87538,-1.064958 l -0.37273,5.0053028 0.74547,0.638974 c 2.07667,-0.479231 1.27795,-1.7039324 1.43769,-3.6208567 0.15975,-1.4376932 0.42598,-2.076668 0.74547,-3.6208571 2.34291,-0.2129915 9.42488,-6.8157309 10.33009,-6.8157309 l -0.21299,-0.4259832 c 0.74547,-0.1064958 6.38975,-5.4845335 7.08197,-6.3897478 0.90522,-1.2779493 2.44941,-2.2896593 3.08838,-3.5143613 0.26624,-0.692223 1.11821,-1.118206 1.43769,-1.703933 0.26624,-0.425983 0.37274,-1.544189 1.4377,-1.650685 -0.15975,-0.425983 1.38444,-2.822138 1.59743,-4.04684 0.26624,-1.810428 -0.47923,-3.407865 -2.18316,-3.407865 -1.01171,0 -8.73265,3.780601 -8.30667,4.845558 z m 0.63897,-0.212991 c 1.4377,-0.106496 3.56761,-3.141626 6.81573,-3.248122 2.28966,1.544189 -0.53247,5.165046 -1.75718,7.135218 -1.17145,1.970173 -3.24812,5.005303 -4.8988,6.7092356 -2.34291,2.4494033 -4.47283,4.1533361 -6.86898,6.4429957 -0.69222,0.6922226 -7.02872,5.218294 -7.77419,5.2715419 0.26623,-3.56760919 8.20017,-16.8795842 9.9041,-17.0925752 -0.37273,-0.692223 1.59744,-2.129916 2.18317,-2.768891 0.58573,-0.532479 2.66239,-2.02342 2.39615,-2.449403 z m 16.40036,-4.952055 -0.0532,0 -0.1065,0 0,0.159744 c 0,0.212992 0,0 -0.10649,0.106496 l 0.21299,0.106496 c 0.0532,-0.106496 0.21299,-0.212992 0.21299,-0.26624 l 0,-0.212991 -0.15974,0.106495 z" />
            <path
               id="path4237"
               style="font-style:normal;font-variant:normal;font-weight:normal;font-stretch:normal;font-family:'Close to You';-inkscape-font-specification:'Close to You';fill:#d3bc5f"
               d="m 386.37189,9.5334271 c -2.02342,0.7454709 -2.87539,0.1064958 -4.47282,-0.9584621 l 0.21299,-0.9052143 1.59744,-0.532479 -0.26624,-0.4259832 0.15974,0.2129916 3.30137,-2.076668 c 0.1065,-1.4909411 0.47923,-0.3727353 1.49094,-1.544189 0.26624,-0.3194874 0.47923,-1.2247017 0.79872,-1.8636765 l -0.42598,-0.47923106 c -3.7806,0 -7.40146,2.92863436 -8.67941,5.59102926 -0.47923,0.9584622 0.26624,1.5441891 -1.2247,1.8636765 -0.47923,0.053248 -1.70394,0.532479 -2.28966,0.7454706 l -0.95846,1.2247021 3.94034,-1.3844458 0.90521,1.2247018 -0.21299,0.159744 c 2.12992,0.159743 1.01171,1.01171 4.20659,0.585726 0.42598,-0.05325 1.06495,-0.266239 1.81043,-0.425983 l 0.10649,-1.0117099 z m -4.25983,-2.609147 c 0.15974,-2.076668 1.97017,-4.1000881 4.57932,-4.8455587 l 0.15974,0.532479 c -1.17145,2.2364117 -2.34291,2.7156428 -4.73906,4.3130797 z" />
            <path
               id="path4239"
               style="font-style:normal;font-variant:normal;font-weight:normal;font-stretch:normal;font-family:'Close to You';-inkscape-font-specification:'Close to You';fill:#d3bc5f"
               d="m 424.60885,1.6527382 c 0.1065,-1.17145374 4.52608,-8.2001763 5.59103,-9.3183821 2.07667,-2.3961551 -0.21299,-2.5026511 3.56761,-2.6623951 0.95847,-0.05325 2.87539,-0.159744 5.75078,-0.159744 -0.95847,1.7571811 -5.32479,5.2182945 -6.92223,6.8689793 -0.47923,0.532479 -6.76248,5.1650461 -7.98719,5.2715419 z m 9.15864,-14.1639412 c 0.0532,-1.118206 4.47283,-5.697525 5.43129,-6.496243 0.69222,-0.585727 2.71564,-2.342908 3.19487,-2.715643 1.38445,-0.958462 3.40787,-1.27795 3.9936,-1.597437 0.31948,0.479231 0.63897,0.585727 0.63897,1.224702 l 0,0.212991 c 0,1.810429 -4.15334,8.200177 -5.91052,9.37163 l -2.12991,-0.106495 -1.54419,0.106495 -1.11821,-0.106495 -2.5559,0.106495 z m -1.59743,0 -1.17146,0.05325 -5.48453,0.106496 -0.21299,-0.05325 -2.34291,0.05325 -2.02342,-0.106496 -2.50265,0.05325 -1.86368,0 -0.85196,0.319488 c -1.11821,-0.745471 -0.26624,-0.319488 -0.95847,-0.319488 l -0.90521,0.106496 0,0.212992 -0.74547,-0.425984 c -1.17145,0.798719 -1.54419,0.05325 -2.02342,2.236412 l 2.82214,0.159744 4.73906,-0.05325 1.11821,-0.05325 0.31948,0.05325 2.87539,0.106496 3.03513,-0.159744 0.95846,0.05325 3.19488,-0.05325 c -1.01171,1.4376932 -2.98189,3.4611133 -3.62086,4.8455587 -0.42598,0.9052142 -2.23641,3.3013697 -3.19487,4.8455587 -0.90522,1.38444535 -1.97018,4.153336 -3.19488,4.6325671 -0.58573,0.2662395 -5.75077,2.3961554 -6.07026,2.609147 l 0.47923,0.6389748 5.05855,-1.9701722 c 0,0 0.15975,0.3727353 0.15975,0.4259832 0,0.1064958 -0.95847,2.2364117 -1.06496,2.5558991 -0.53248,1.01171 -0.42598,0.8519664 -0.53248,2.2364116 2.12992,1.703933 2.98188,-2.1831637 3.6741,-3.6741049 1.54419,-3.620857 1.27795,-3.5676091 4.68582,-5.2715419 2.07667,-1.06495794 4.15334,-3.141626 5.69752,-3.9935923 0.85197,-0.4259832 4.63257,-3.8870966 5.43129,-4.0468403 -0.37274,-0.6389748 0.0532,-0.8519664 0.95846,-0.9052143 l -0.15974,-0.2662395 1.01171,-0.9052142 -0.26624,-0.2129916 c 1.38444,-0.053248 1.2247,-1.597437 2.76889,-1.916924 0.37274,-0.05325 2.18316,0.05325 2.71564,0.05325 1.97017,0 3.62086,-0.106496 5.53778,-0.05325 l 2.5559,-0.05325 0.26624,0.05325 1.75718,-0.159744 2.5559,-0.106496 0.90522,0 0.90521,0 0.90522,0.05325 3.24812,-0.372735 c 1.33119,-1.01171 0.74547,-1.863677 -1.11821,-1.863677 -1.54419,0 -3.08838,0 -4.57932,0 -3.62086,0 -5.43128,0.319488 -6.65599,0.159744 l -1.86367,0.05325 -0.90522,0 -0.95846,0.106496 -3.62086,-0.106496 c 1.54419,-2.28966 6.17676,-6.230004 6.17676,-9.584622 0,-2.449403 -3.24812,-2.289659 -4.47282,-1.703932 -0.79872,0.372735 -2.12992,0.958462 -2.6624,1.384445 -0.42598,0.372735 -1.97017,1.597437 -2.34291,1.810428 -1.54418,0.958463 -7.82744,6.922227 -8.14692,8.413168 z" />
            <path
               id="path4241"
               style="font-style:normal;font-variant:normal;font-weight:normal;font-stretch:normal;font-family:'Close to You';-inkscape-font-specification:'Close to You';fill:#d3bc5f"
               d="m 436.18778,9.5334271 c -2.02342,0.7454709 -2.87539,0.1064958 -4.47283,-0.9584621 l 0.213,-0.9052143 1.59743,-0.532479 -0.26624,-0.4259832 0.15975,0.2129916 3.30137,-2.076668 c 0.10649,-1.4909411 0.47923,-0.3727353 1.49094,-1.544189 0.26624,-0.3194874 0.47923,-1.2247017 0.79872,-1.8636765 l -0.42599,-0.47923106 c -3.7806,0 -7.40145,2.92863436 -8.6794,5.59102926 -0.47923,0.9584622 0.26624,1.5441891 -1.22471,1.8636765 -0.47923,0.053248 -1.70393,0.532479 -2.28965,0.7454706 l -0.95847,1.2247021 3.94035,-1.3844458 0.90521,1.2247018 -0.21299,0.159744 c 2.12992,0.159743 1.01171,1.01171 4.20658,0.585726 0.42599,-0.05325 1.06496,-0.266239 1.81043,-0.425983 l 0.1065,-1.0117099 z m -4.25983,-2.609147 c 0.15974,-2.076668 1.97017,-4.1000881 4.57932,-4.8455587 l 0.15974,0.532479 c -1.17145,2.2364117 -2.34291,2.7156428 -4.73906,4.3130797 z" />
            <path
               id="path4243"
               style="font-style:normal;font-variant:normal;font-weight:normal;font-stretch:normal;font-family:'Close to You';-inkscape-font-specification:'Close to You';fill:#d3bc5f"
               d="m 464.75862,9.1606919 c -0.0532,0 -0.0532,0 -0.0532,0 l -2.28966,0.1597436 -1.59743,-1.7571806 1.2247,-4.3130797 -0.26624,-0.053248 c -1.2247,0.1064958 -4.20658,2.9818823 -5.32479,3.6741049 -0.15974,0.1064958 -0.85197,0.2129916 -1.06496,0.3194874 -0.69222,0.2662395 -0.47923,0.4792311 -1.38444,0.9052143 -1.70394,0.7454706 -1.38445,1.2247016 -2.71565,0.4259832 1.22471,-2.2364117 3.40787,-3.3013697 2.6624,-4.6858151 l -0.95846,-0.1597437 c -1.3312,0.8519664 -9.95736,6.1235083 -9.95736,4.6325672 0,-0.8519664 1.65068,-2.0234201 2.23641,-2.6623949 0.74547,-0.9052143 0.58573,-1.7039328 0.90522,-2.4494033 -1.75719,-0.1597437 -3.03513,1.0649579 -4.84556,1.9701722 -1.38445,0.6922227 -2.5559,1.2779495 -3.7806,1.8104285 l -2.07667,2.0766681 c 2.39615,-1.064958 6.54949,-3.3546176 7.5612,-3.4078655 l -1.49094,1.7039327 0.21299,0.2129916 c -1.06496,0.1064958 -2.07667,1.9701722 -2.18316,3.1416261 2.92863,1.437693 9.10539,-4.7923109 10.70282,-4.1000883 l -1.91692,2.9286344 0.47923,1.1714539 c 3.67411,0 8.67941,-4.1000883 9.26513,-4.1000883 0.95847,0 0.1065,-0.1064958 0.74548,0.2129916 -0.26624,0.4259832 -0.47924,0.8519664 -0.47924,1.2247017 0,3.354618 2.82214,2.768891 4.57932,2.555899 0.74547,-0.106496 1.38445,0.05325 2.39616,-0.372735 l -0.58573,-1.0649581 z" />
            <path
               id="path4245"
               style="font-style:normal;font-variant:normal;font-weight:normal;font-stretch:normal;font-family:'Close to You';-inkscape-font-specification:'Close to You';fill:#d3bc5f"
               d="m 470.90208,4.5813726 1.1182,-1.1182058 0.0532,-0.9052143 -3.30137,0.1064958 -1.49094,0 -2.18316,1.9701722 2.07667,-0.053248 c 1.49094,-0.1064958 1.2247,-0.1064958 1.65068,0.9052143 l -4.41957,2.2364117 0.31948,0.4792311 c -1.49094,0.1597437 -7.29496,4.5260713 -8.51966,5.5377813 -1.17145,1.01171 -2.87539,2.129916 -4.04684,3.194874 -0.95846,0.851966 -2.4494,3.088378 -3.7806,3.407865 l -0.90522,0.958463 -0.10649,-0.159744 0.21299,0.425983 -0.21299,-0.212991 -2.5559,2.662394 -0.15974,-0.106495 c 0.37273,0.74547 -1.27795,1.544189 -1.65069,2.449403 -0.37274,0.692223 -1.54419,1.863676 -1.91692,2.449403 -1.3312,1.863677 -1.97018,3.727353 -1.97018,6.549492 3.51436,5.378037 9.79762,-4.685815 11.28856,-4.792311 l -0.15975,-0.212992 1.4377,-1.970172 0.90521,-0.905214 -0.10649,-0.159744 0.42598,0.26624 c 0.1065,-0.532479 4.52607,-6.017013 4.95205,-6.389748 0.15975,-0.212992 2.28966,-2.822139 2.39616,-3.194874 0.63897,-1.118206 1.70393,-2.28966 2.66239,-3.354618 1.81043,-2.236411 3.14163,-4.366327 5.2183,-6.7092348 1.2247,-1.2779496 0.63897,-1.4909412 3.08838,-2.609147 0.26624,-0.2129916 3.72735,-1.4376933 3.88709,-1.4376933 l 1.01171,0 c 0.58573,0 1.2247,0.6922227 1.2247,0.8519664 0,1.7039327 -1.06495,1.064958 -1.2247,2.5026512 -0.63897,-0.2662395 -1.38444,0.9584622 -2.28966,1.2247017 -1.01171,0.4259832 -1.70393,0.2662395 -2.87538,0.1064958 l -0.79872,-1.3311975 c -0.58573,0.3194874 -1.86368,0.8519664 -1.86368,1.6506849 l 0,0.2662395 c 0,0.479231 0.74547,1.1182061 1.11821,1.1182061 l 2.18316,0 c 1.75718,0 5.80402,-3.6208574 6.92223,-3.6741053 0.31949,-1.2247016 1.06496,-1.1182058 1.3312,-2.5558991 0.15974,-1.544189 -0.79872,-0.9052142 -1.54419,-2.076668 -0.47923,0.2129916 -3.19488,0.6922227 -4.10009,1.1714538 -1.06496,0.3727353 -2.5559,1.3311974 -3.30137,1.4376932 z M 451.94583,18.212835 c 1.38444,-0.159744 2.28966,-1.970173 3.40786,-2.822139 0.47923,-0.212992 3.08838,-2.183164 3.40787,-2.502651 0.74547,-0.851967 6.54949,-4.6858153 7.08197,-4.4728237 0.15974,0.4259832 -8.09368,10.7028277 -9.58462,12.7794957 -1.2247,1.544189 -8.46642,11.714537 -10.27685,11.874281 0.37274,0.905214 -2.76889,2.609147 -3.62085,2.076668 -3.46112,-2.449403 6.38974,-14.643172 8.04043,-14.749668 l -0.26624,-0.425983 1.17145,-0.692223 0.63898,-1.064957 z m 19.43548,-4.472824 c 0,0.159744 -0.15974,0.212992 -0.15974,0.319487 0.15974,0 0.0532,0 0.15974,-0.106495 l 0,0 0.1065,-0.212992 -0.1065,0 0,0 z" />
            <path
               id="path4247"
               style="font-style:normal;font-variant:normal;font-weight:normal;font-stretch:normal;font-family:'Close to You';-inkscape-font-specification:'Close to You';fill:#d3bc5f"
               d="m 479.25034,10.065906 c 0.85197,-0.3727352 3.24812,-1.5441889 4.25983,-2.1831637 2.02342,-1.3311975 6.92223,-4.7923108 8.35992,-2.8221386 0.85197,1.544189 -1.81042,4.5793192 -3.72735,4.5793192 l -0.15974,0 c -1.01171,0 -1.59744,-0.6389747 -2.23641,-1.5974369 l -1.70394,1.1714538 c 0.15975,2.2896592 1.01171,1.5441892 3.46112,1.5441892 0.63897,-0.425983 2.87538,-1.3311977 4.31308,-2.2364119 1.43769,-0.9052143 2.12991,-2.2896596 2.4494,-3.8870966 l -0.42598,-1.0649579 c -2.12992,-0.2129916 -1.38445,-1.1714538 -3.9936,-0.1597437 -1.1182,0.4259831 -2.76889,1.3844453 -4.20658,2.1831638 -1.27795,0.7454706 -2.71564,1.9701722 -3.94034,2.5558991 -0.42599,0.2129916 -1.4377,0.532479 -2.39616,0.8519664 l -0.0532,1.0649578 z" />
            <path
               id="path4249"
               style="font-style:normal;font-variant:normal;font-weight:normal;font-stretch:normal;font-family:'Close to You';-inkscape-font-specification:'Close to You';fill:#d3bc5f"
               d="m 499.49682,4.4203809 5.48599,0 0,6.6039871 -5.48599,0 0,-6.6039871 z" />
          </g>
          <path
             inkscape:connector-curvature="0"
             d="m 328.99468,-50.492494 0.87766,0.733677 -0.46632,1.218703 -1.54974,1.697086 -0.53658,-0.448549 1.20865,-1.982221 0.46633,-1.218696 z"
             style="font-style:normal;font-variant:normal;font-weight:normal;font-stretch:normal;font-size:80px;line-height:125%;font-family:'Close to You';-inkscape-font-specification:'Close to You';letter-spacing:0px;word-spacing:0px;fill:#d3bc5f;fill-opacity:1;stroke:none;stroke-width:1px;stroke-linecap:butt;stroke-linejoin:miter;stroke-opacity:1"
             id="path4772-6-4" />
        </g>
      </g>
    </g>
  </g>
</svg>
