<?xml version="1.0" encoding="UTF-8" standalone="no"?>
<!-- Created with Inkscape (http://www.inkscape.org/) -->

<svg
   xmlns:dc="http://purl.org/dc/elements/1.1/"
   xmlns:cc="http://creativecommons.org/ns#"
   xmlns:rdf="http://www.w3.org/1999/02/22-rdf-syntax-ns#"
   xmlns:svg="http://www.w3.org/2000/svg"
   xmlns="http://www.w3.org/2000/svg"
   xmlns:sodipodi="http://sodipodi.sourceforge.net/DTD/sodipodi-0.dtd"
   xmlns:inkscape="http://www.inkscape.org/namespaces/inkscape"
   width="764"
   height="168"
   viewBox="0 0 764.00001 168"
   id="svg2"
   version="1.1"
   inkscape:version="0.91 r13725"
   inkscape:export-filename="C:\Users\Noël Marais\imagedutemps_bis\Maquette\image\titre.png"
   inkscape:export-xdpi="90"
   inkscape:export-ydpi="90"
   sodipodi:docname="titre.svg">
  <defs
     id="defs4">
    <filter
       inkscape:label="In and Out"
       inkscape:menu="Shadows and Glows"
       inkscape:menu-tooltip="Inner colorized shadow, outer black shadow"
       style="color-interpolation-filters:sRGB;"
       id="filter4263">
      <feGaussianBlur
         result="result0"
         in="SourceAlpha"
         stdDeviation="4"
         id="feGaussianBlur4265" />
      <feOffset
         dx="5"
         dy="5"
         result="result4"
         id="feOffset4267" />
      <feComposite
         in="SourceGraphic"
         in2="result4"
         operator="xor"
         result="result3"
         id="feComposite4269" />
    </filter>
  </defs>
  <sodipodi:namedview
     id="base"
     pagecolor="#ffffff"
     bordercolor="#666666"
     borderopacity="1.0"
     inkscape:pageopacity="0.0"
     inkscape:pageshadow="2"
     inkscape:zoom="1.4"
     inkscape:cx="394.31291"
     inkscape:cy="140.21428"
     inkscape:document-units="px"
     inkscape:current-layer="flowRoot4136"
     showgrid="false"
     units="px"
     inkscape:window-width="1920"
     inkscape:window-height="1148"
     inkscape:window-x="1272"
     inkscape:window-y="-8"
     inkscape:window-maximized="1" />
  <metadata
     id="metadata7">
    <rdf:RDF>
      <cc:Work
         rdf:about="">
        <dc:format>image/svg+xml</dc:format>
        <dc:type
           rdf:resource="http://purl.org/dc/dcmitype/StillImage" />
        <dc:title />
      </cc:Work>
    </rdf:RDF>
  </metadata>
  <g
     inkscape:label="Calque 1"
     inkscape:groupmode="layer"
     id="layer1"
     transform="translate(0,-884.36216)">
    <g
       transform="matrix(0.842406,0,0,0.79249747,-38.5099,692.43284)"
       style="font-style:normal;font-weight:normal;font-size:40px;line-height:125%;font-family:sans-serif;letter-spacing:0px;word-spacing:0px;fill:#000000;fill-opacity:1;stroke:none;stroke-width:1px;stroke-linecap:butt;stroke-linejoin:miter;stroke-opacity:1"
       id="flowRoot4136">
      <g
         id="g4886"
         inkscape:export-filename="C:\wamp\www\imagedutemps\image\titre.png"
         inkscape:export-xdpi="90"
         inkscape:export-ydpi="90"
         style="fill:#d3bc5f;filter:url(#filter4263)">
        <path
           id="path4145"
           style="font-style:normal;font-variant:normal;font-weight:normal;font-stretch:normal;font-size:180px;font-family:'Close to You';-inkscape-font-specification:'Close to You';fill:#d3bc5f"
           d="m 176.03484,268.27839 0.9,1.44 c -9.18,0.9 -23.58,28.26 -25.56,32.76 -9.72,22.86 12.78,29.88 17.82,17.82 l -6.12,0 c -6.66,-4.86 -5.76,-12.6 -3.06,-19.44 2.34,-5.58 7.38,-19.26 12.06,-19.62 -1.98,-5.22 42.84,-42.12 49.68,-32.04 -1.8,8.46 -3.06,12.06 -7.56,19.8 -2.52,4.32 -10.8,16.02 -11.88,18.54 -3.42,7.74 -24.48,28.62 -25.38,32.76 -3.24,0.18 -15.3,13.14 -18.18,16.02 -4.68,4.5 -14.76,11.16 -20.7,14.4 -11.88,6.48 -29.16,7.02 -43.559996,6.48 l -6.12,0.18 -6.12,-0.72 -3.78,0.36 -3.78,-0.36 -9.9,0 c -4.5,0 -18.72,4.68 -19.08,10.62 12.06,-4.68 26.28,-0.72 35.1,-0.9 l 5.22,0.18 0.9,-0.18 5.22,0.18 0.9,0 6.84,-0.72 c 4.679996,-0.18 24.479996,-0.18 28.979996,-6.84 14.76,0 55.98,-42.48 64.8,-53.28 4.32,-5.58 8.46,-9.72 12.78,-14.58 4.86,-6.12 7.2,-10.44 11.7,-16.56 5.58,-7.56 22.32,-32.22 7.56,-32.22 l -2.34,0 c -15.84,0 -43.74,25.56 -47.34,25.92 z" />
        <path
           id="path4147"
           style="font-style:normal;font-variant:normal;font-weight:normal;font-stretch:normal;font-size:180px;font-family:'Close to You';-inkscape-font-specification:'Close to You';fill:#d3bc5f"
           d="m 257.25984,361.87839 c -0.18,0 -0.18,0 -0.18,0 l -7.74,0.54 -5.4,-5.94 4.14,-14.58 -0.9,-0.18 c -4.14,0.36 -14.22,10.08 -18,12.42 -0.54,0.36 -2.88,0.72 -3.6,1.08 -2.34,0.9 -1.62,1.62 -4.68,3.06 -5.76,2.52 -4.68,4.14 -9.18,1.44 4.14,-7.56 11.52,-11.16 9,-15.84 l -3.24,-0.54 c -4.5,2.88 -33.66,20.7 -33.66,15.66 0,-2.88 5.58,-6.84 7.56,-9 2.52,-3.06 1.98,-5.76 3.06,-8.28 -5.94,-0.54 -10.26,3.6 -16.38,6.66 -4.68,2.34 -8.64,4.32 -12.78,6.12 l -7.02,7.02 c 8.1,-3.6 22.14,-11.34 25.56,-11.52 l -5.04,5.76 0.72,0.72 c -3.6,0.36 -7.02,6.66 -7.38,10.62 9.9,4.86 30.78,-16.2 36.18,-13.86 l -6.48,9.9 1.62,3.96 c 12.42,0 29.34,-13.86 31.32,-13.86 3.24,0 0.36,-0.36 2.52,0.72 -0.9,1.44 -1.62,2.88 -1.62,4.14 0,11.34 9.54,9.36 15.48,8.64 2.52,-0.36 4.68,0.18 8.1,-1.26 l -1.98,-3.6 z" />
        <path
           id="path4149"
           style="font-style:normal;font-variant:normal;font-weight:normal;font-stretch:normal;font-size:180px;font-family:'Close to You';-inkscape-font-specification:'Close to You';fill:#d3bc5f"
           d="m 295.66734,362.23839 c -6.12,2.34 -7.92,-0.72 -12.24,-1.26 l -2.88,-7.56 c -4.68,0.36 -5.4,5.22 -11.34,7.38 -7.74,2.7 -6.3,2.16 -11.34,-1.26 3.78,-7.74 1.8,-8.64 9.54,-14.58 4.68,-3.24 12.42,-7.56 15.66,-3.06 l -4.86,5.94 c 1.44,1.08 1.44,1.62 3.06,1.62 l 0.72,0 c 1.98,0 4.86,-3.42 6.12,-4.86 1.98,-1.8 1.44,-3.24 1.62,-6.84 l -1.44,-1.62 c -13.14,0 -17.82,3.06 -25.74,9.54 -3.6,2.7 -7.02,5.76 -9.36,9.9 -2.34,4.5 -2.16,12.6 3.06,12.6 l 3.96,0 c 4.86,0 9.18,-6.12 14.76,-6.3 0.54,2.7 1.8,6.3 6.3,6.3 l 3.78,0 c 3.24,0 7.56,-1.44 11.52,-3.06 l -0.9,-2.88 z" />
        <path
           id="path4151"
           style="font-style:normal;font-variant:normal;font-weight:normal;font-stretch:normal;font-size:180px;font-family:'Close to You';-inkscape-font-specification:'Close to You';fill:#d3bc5f"
           d="m 285.38203,391.39839 c 6.48,-0.36 16.38,-6.84 20.34,-4.86 -1.26,1.98 -9,12.24 -9.72,13.14 -3.96,4.14 -6.84,9.72 -10.62,13.5 -0.72,0.72 -9.54,11.34 -9.9,12.06 -0.9,3.24 -10.62,9.36 -9.72,12.06 -3.42,0.18 -8.28,7.56 -11.34,9.72 -2.52,1.8 -8.46,1.8 -8.46,-4.14 l 0,-3.24 c 0,-1.62 1.26,-5.94 1.62,-7.92 l -1.62,0 0,-2.52 2.16,1.62 c 0.9,-10.08 26.64,-36.72 38.16,-37.98 l -0.9,-1.44 z m 26.28,-44.28 0.72,1.62 c -6.66,0.18 -10.62,10.44 -11.7,15.12 2.52,3.78 3.78,6.12 9.36,5.58 2.7,-0.54 9.18,-5.4 12.96,-5.4 l -11.34,14.94 c -0.54,0.72 -21.06,8.46 -24.12,9.72 -8.28,4.14 -17.28,9.18 -23.22,14.76 -6.3,6.48 -13.68,12.96 -16.74,20.16 -1.62,4.14 -4.32,5.94 -6.12,12.24 -3.06,8.64 -1.8,5.04 -1.8,12.96 4.32,2.88 5.04,5.94 10.8,3.78 3.06,-1.62 10.08,-6.3 12.24,-8.82 2.16,-2.34 8.46,-8.82 9.9,-10.98 1.98,-2.7 9.72,-8.82 8.28,-10.62 l 1.26,0.54 11.34,-14.76 -0.72,-0.54 2.34,0 c 0.18,-2.88 7.02,-9.9 8.28,-12.42 2.16,-4.5 6.3,-7.92 10.62,-10.44 l 10.26,-0.36 5.58,0 c 1.26,0 3.78,-0.72 3.78,-0.72 l 5.04,0.72 3.06,0 5.76,-0.36 10.26,0.36 c 4.14,0.36 8.1,-1.98 6.3,-5.22 l 0,-0.72 -7.2,-0.72 -16.74,-0.54 -2.88,0 -6.66,0 -14.22,2.34 6.66,-9.36 4.86,-7.38 3.6,-1.8 c -1.08,-1.98 5.22,-7.02 1.44,-7.02 -1.26,0 -8.28,5.4 -9.72,5.94 -1.8,0.72 -9,4.32 -9.18,4.86 -3.24,-2.16 -7.92,-1.44 -2.88,-8.64 1.8,-2.16 1.62,-3.42 4.14,-5.4 1.98,-1.62 4.68,-1.8 3.96,-3.96 l 16.56,-6.66 2.52,1.62 -6.12,6.3 c 0.72,0.54 2.16,2.34 2.7,2.34 3.42,0 10.98,-6.66 8.82,-10.26 -1.26,-2.16 -2.7,-3.06 -4.32,-3.06 -4.86,0 -7.74,1.98 -13.32,3.24 -3.6,0.72 -11.88,6.66 -14.4,7.02 z" />
        <path
           id="path4153"
           style="font-style:normal;font-variant:normal;font-weight:normal;font-stretch:normal;font-size:180px;font-family:'Close to You';-inkscape-font-specification:'Close to You';fill:#d3bc5f"
           d="m 377.59266,363.13839 c -6.84,2.52 -9.72,0.36 -15.12,-3.24 l 0.72,-3.06 5.4,-1.8 -0.9,-1.44 0.54,0.72 11.16,-7.02 c 0.36,-5.04 1.62,-1.26 5.04,-5.22 0.9,-1.08 1.62,-4.14 2.7,-6.3 l -1.44,-1.62 c -12.78,0 -25.02,9.9 -29.34,18.9 -1.62,3.24 0.9,5.22 -4.14,6.3 -1.62,0.18 -5.76,1.8 -7.74,2.52 l -3.24,4.14 13.32,-4.68 3.06,4.14 -0.72,0.54 c 7.2,0.54 3.42,3.42 14.22,1.98 1.44,-0.18 3.6,-0.9 6.12,-1.44 l 0.36,-3.42 z m -14.4,-8.82 c 0.54,-7.02 6.66,-13.86 15.48,-16.38 l 0.54,1.8 c -3.96,7.56 -7.92,9.18 -16.02,14.58 z" />
        <path
           id="path4155"
           style="font-style:normal;font-variant:normal;font-weight:normal;font-stretch:normal;font-size:180px;font-family:'Close to You';-inkscape-font-specification:'Close to You';fill:#d3bc5f"
           d="m 548.60953,278.35839 c -5.76,0.72 -25.74,33.12 -27.9,36.9 -2.34,3.6 -9,17.82 -10.08,20.88 -1.62,7.02 -6.3,18.72 -6.66,22.5 -1.08,-0.36 -9.72,4.5 -13.5,3.78 l -5.22,-0.72 c -2.16,-9 -2.16,-7.02 4.68,-14.04 3.42,-3.42 9.18,-4.86 13.32,-4.86 l 5.22,-1.44 -1.44,-1.98 c -7.2,0 -7.38,0.36 -12.24,1.8 -2.34,0.72 -8.64,5.4 -11.16,5.58 l 0.9,1.62 c -0.72,0 -1.44,0.36 -2.34,0.54 l -5.4,7.74 c 0.72,3.96 -1.08,10.8 9.9,10.8 2.88,0 0.36,-0.18 2.16,0.36 l 13.86,-5.4 -1.08,21.06 6.66,-1.8 c 0,-10.08 1.08,-26.1 9,-26.82 l -0.9,-1.44 c 7.38,-0.72 32.94,-26.28 38.7,-32.04 4.86,-5.04 13.5,-12.6 17.28,-17.64 2.88,-3.78 5.58,-6.3 7.92,-9.54 1.26,-1.8 4.86,-6.84 6.3,-8.82 1.98,-2.52 3.78,-6.12 6.3,-9.36 3.06,-4.14 1.62,-5.4 4.5,-9 4.68,-6.84 2.52,-19.26 -9,-16.74 -5.4,1.26 -17.64,8.28 -21.42,10.8 -3.42,2.16 -18,13.68 -18.36,17.28 z m -35.1,74.34 c 0.9,-11.52 16.38,-45.9 23.58,-55.08 7.2,-8.82 12.42,-17.1 20.7,-25.56 5.22,-4.86 20.34,-16.74 27.18,-16.74 l 0.54,0 c 11.34,0 2.16,17.46 -0.54,22.32 -1.26,2.52 -1.62,3.6 -2.7,5.58 -0.9,2.16 -2.7,3.06 -3.78,5.22 -2.34,4.5 -5.04,6.84 -6.66,10.08 -1.98,4.14 -34.92,38.7 -38.88,39.24 1.08,2.7 -16.02,12.6 -19.44,14.94 z" />
        <path
           id="path4157"
           style="font-style:normal;font-variant:normal;font-weight:normal;font-stretch:normal;font-size:180px;font-family:'Close to You';-inkscape-font-specification:'Close to You';fill:#d3bc5f"
           d="m 591.36797,361.15839 c -11.16,0.54 -14.22,9.18 -21.42,-1.08 l 10.26,-14.94 0.18,-2.34 -3.24,-1.08 c -3.06,4.5 -9.9,9.18 -14.22,12.78 -1.98,1.44 -5.76,4.32 -8.28,5.4 -3.6,1.8 -6.84,2.34 -9.54,3.6 l -2.52,-2.34 c 0.72,-8.82 4.86,-10.44 9.18,-16.92 -0.72,-0.36 -2.16,-1.8 -2.52,-1.8 -4.14,0 -16.2,16.02 -16.2,19.62 l 0,3.24 c 5.22,1.8 -0.9,4.68 12.6,1.62 4.68,-0.9 10.44,-4.14 15.3,-7.56 2.88,3.78 -0.54,6.48 3.96,9.54 4.14,2.52 6.3,-0.18 12.96,-0.54 l 10.8,-3.24 0.18,-0.18 2.52,-3.78 z" />
        <path
           id="path4159"
           style="font-style:normal;font-variant:normal;font-weight:normal;font-stretch:normal;font-size:180px;font-family:'Close to You';-inkscape-font-specification:'Close to You';fill:#d3bc5f"
           d="m 716.73234,336.49839 c 0.36,-3.96 15.3,-27.72 18.9,-31.5 7.02,-8.1 -0.72,-8.46 12.06,-9 3.24,-0.18 9.72,-0.54 19.44,-0.54 -3.24,5.94 -18,17.64 -23.4,23.22 -1.62,1.8 -22.86,17.46 -27,17.82 z m 30.96,-47.88 c 0.18,-3.78 15.12,-19.26 18.36,-21.96 2.34,-1.98 9.18,-7.92 10.8,-9.18 4.68,-3.24 11.52,-4.32 13.5,-5.4 1.08,1.62 2.16,1.98 2.16,4.14 l 0,0.72 c 0,6.12 -14.04,27.72 -19.98,31.68 l -7.2,-0.36 -5.22,0.36 -3.78,-0.36 -8.64,0.36 z m -5.4,0 -3.96,0.18 -18.54,0.36 -0.72,-0.18 -7.92,0.18 -6.84,-0.36 -8.46,0.18 -6.3,0 -2.88,1.08 c -3.78,-2.52 -0.9,-1.08 -3.24,-1.08 l -3.06,0.36 0,0.72 -2.52,-1.44 c -3.96,2.7 -5.22,0.18 -6.84,7.56 l 9.54,0.54 16.02,-0.18 3.78,-0.18 1.08,0.18 9.72,0.36 10.26,-0.54 3.24,0.18 10.8,-0.18 c -3.42,4.86 -10.08,11.7 -12.24,16.38 -1.44,3.06 -7.56,11.16 -10.8,16.38 -3.06,4.68 -6.66,14.04 -10.8,15.66 -1.98,0.9 -19.44,8.1 -20.52,8.82 l 1.62,2.16 17.1,-6.66 c 0,0 0.54,1.26 0.54,1.44 0,0.36 -3.24,7.56 -3.6,8.64 -1.8,3.42 -1.44,2.88 -1.8,7.56 7.2,5.76 10.08,-7.38 12.42,-12.42 5.22,-12.24 4.32,-12.06 15.84,-17.82 7.02,-3.6 14.04,-10.62 19.26,-13.5 2.88,-1.44 15.66,-13.14 18.36,-13.68 -1.26,-2.16 0.18,-2.88 3.24,-3.06 l -0.54,-0.9 3.42,-3.06 -0.9,-0.72 c 4.68,-0.18 4.14,-5.4 9.36,-6.48 1.26,-0.18 7.38,0.18 9.18,0.18 6.66,0 12.24,-0.36 18.72,-0.18 l 8.64,-0.18 0.9,0.18 5.94,-0.54 8.64,-0.36 3.06,0 3.06,0 3.06,0.18 10.98,-1.26 c 4.5,-3.42 2.52,-6.3 -3.78,-6.3 -5.22,0 -10.44,0 -15.48,0 -12.24,0 -18.36,1.08 -22.5,0.54 l -6.3,0.18 -3.06,0 -3.24,0.36 -12.24,-0.36 c 5.22,-7.74 20.88,-21.06 20.88,-32.4 0,-8.28 -10.98,-7.74 -15.12,-5.76 -2.7,1.26 -7.2,3.24 -9,4.68 -1.44,1.26 -6.66,5.4 -7.92,6.12 -5.22,3.24 -26.46,23.4 -27.54,28.44 z" />
        <path
           id="path4161"
           style="font-style:normal;font-variant:normal;font-weight:normal;font-stretch:normal;font-size:180px;font-family:'Close to You';-inkscape-font-specification:'Close to You';fill:#d3bc5f"
           d="m 755.87391,363.13839 c -6.84,2.52 -9.72,0.36 -15.12,-3.24 l 0.72,-3.06 5.4,-1.8 -0.9,-1.44 0.54,0.72 11.16,-7.02 c 0.36,-5.04 1.62,-1.26 5.04,-5.22 0.9,-1.08 1.62,-4.14 2.7,-6.3 l -1.44,-1.62 c -12.78,0 -25.02,9.9 -29.34,18.9 -1.62,3.24 0.9,5.22 -4.14,6.3 -1.62,0.18 -5.76,1.8 -7.74,2.52 l -3.24,4.14 13.32,-4.68 3.06,4.14 -0.72,0.54 c 7.2,0.54 3.42,3.42 14.22,1.98 1.44,-0.18 3.6,-0.9 6.12,-1.44 l 0.36,-3.42 z m -14.4,-8.82 c 0.54,-7.02 6.66,-13.86 15.48,-16.38 l 0.54,1.8 c -3.96,7.56 -7.92,9.18 -16.02,14.58 z" />
        <path
           id="path4163"
           style="font-style:normal;font-variant:normal;font-weight:normal;font-stretch:normal;font-size:180px;font-family:'Close to You';-inkscape-font-specification:'Close to You';fill:#d3bc5f"
           d="m 852.45516,361.87839 c -0.18,0 -0.18,0 -0.18,0 l -7.74,0.54 -5.4,-5.94 4.14,-14.58 -0.9,-0.18 c -4.14,0.36 -14.22,10.08 -18,12.42 -0.54,0.36 -2.88,0.72 -3.6,1.08 -2.34,0.9 -1.62,1.62 -4.68,3.06 -5.76,2.52 -4.68,4.14 -9.18,1.44 4.14,-7.56 11.52,-11.16 9,-15.84 l -3.24,-0.54 c -4.5,2.88 -33.66,20.7 -33.66,15.66 0,-2.88 5.58,-6.84 7.56,-9 2.52,-3.06 1.98,-5.76 3.06,-8.28 -5.94,-0.54 -10.26,3.6 -16.38,6.66 -4.68,2.34 -8.64,4.32 -12.78,6.12 l -7.02,7.02 c 8.1,-3.6 22.14,-11.34 25.56,-11.52 l -5.04,5.76 0.72,0.72 c -3.6,0.36 -7.02,6.66 -7.38,10.62 9.9,4.86 30.78,-16.2 36.18,-13.86 l -6.48,9.9 1.62,3.96 c 12.42,0 29.34,-13.86 31.32,-13.86 3.24,0 0.36,-0.36 2.52,0.72 -0.9,1.44 -1.62,2.88 -1.62,4.14 0,11.34 9.54,9.36 15.48,8.64 2.52,-0.36 4.68,0.18 8.1,-1.26 l -1.98,-3.6 z" />
        <path
           id="path4165"
           style="font-style:normal;font-variant:normal;font-weight:normal;font-stretch:normal;font-size:180px;font-family:'Close to You';-inkscape-font-specification:'Close to You';fill:#d3bc5f"
           d="m 873.22266,346.39839 3.78,-3.78 0.18,-3.06 -11.16,0.36 -5.04,0 -7.38,6.66 7.02,-0.18 c 5.04,-0.36 4.14,-0.36 5.58,3.06 l -14.94,7.56 1.08,1.62 c -5.04,0.54 -24.66,15.3 -28.8,18.72 -3.96,3.42 -9.72,7.2 -13.68,10.8 -3.24,2.88 -8.28,10.44 -12.78,11.52 l -3.06,3.24 -0.36,-0.54 0.72,1.44 -0.72,-0.72 -8.64,9 -0.54,-0.36 c 1.26,2.52 -4.32,5.22 -5.58,8.28 -1.26,2.34 -5.22,6.3 -6.48,8.28 -4.5,6.3 -6.66,12.6 -6.66,22.14 11.88,18.18 33.12,-15.84 38.16,-16.2 l -0.54,-0.72 4.86,-6.66 3.06,-3.06 -0.36,-0.54 1.44,0.9 c 0.36,-1.8 15.3,-20.34 16.74,-21.6 0.54,-0.72 7.74,-9.54 8.1,-10.8 2.16,-3.78 5.76,-7.74 9,-11.34 6.12,-7.56 10.62,-14.76 17.64,-22.68 4.14,-4.32 2.16,-5.04 10.44,-8.82 0.9,-0.72 12.6,-4.86 13.14,-4.86 l 3.42,0 c 1.98,0 4.14,2.34 4.14,2.88 0,5.76 -3.6,3.6 -4.14,8.46 -2.16,-0.9 -4.68,3.24 -7.74,4.14 -3.42,1.44 -5.76,0.9 -9.72,0.36 l -2.7,-4.5 c -1.98,1.08 -6.3,2.88 -6.3,5.58 l 0,0.9 c 0,1.62 2.52,3.78 3.78,3.78 l 7.38,0 c 5.94,0 19.62,-12.24 23.4,-12.42 1.08,-4.14 3.6,-3.78 4.5,-8.64 0.54,-5.22 -2.7,-3.06 -5.22,-7.02 -1.62,0.72 -10.8,2.34 -13.86,3.96 -3.6,1.26 -8.64,4.5 -11.16,4.86 z m -64.08,46.08 c 4.68,-0.54 7.74,-6.66 11.52,-9.54 1.62,-0.72 10.44,-7.38 11.52,-8.46 2.52,-2.88 22.14,-15.84 23.94,-15.12 0.54,1.44 -27.36,36.18 -32.4,43.2 -4.14,5.22 -28.62,39.6 -34.74,40.14 1.26,3.06 -9.36,8.82 -12.24,7.02 -11.7,-8.28 21.6,-49.5 27.18,-49.86 l -0.9,-1.44 3.96,-2.34 2.16,-3.6 z m 65.7,-15.12 c 0,0.54 -0.54,0.72 -0.54,1.08 0.54,0 0.18,0 0.54,-0.36 l 0,0 0.36,-0.72 -0.36,0 0,0 z" />
        <path
           id="path4167"
           style="font-style:normal;font-variant:normal;font-weight:normal;font-stretch:normal;font-size:180px;font-family:'Close to You';-inkscape-font-specification:'Close to You';fill:#d3bc5f"
           d="m 901.44328,364.93839 c 2.88,-1.26 10.98,-5.22 14.4,-7.38 6.84,-4.5 23.4,-16.2 28.26,-9.54 2.88,5.22 -6.12,15.48 -12.6,15.48 l -0.54,0 c -3.42,0 -5.4,-2.16 -7.56,-5.4 l -5.76,3.96 c 0.54,7.74 3.42,5.22 11.7,5.22 2.16,-1.44 9.72,-4.5 14.58,-7.56 4.86,-3.06 7.2,-7.74 8.28,-13.14 l -1.44,-3.6 c -7.2,-0.72 -4.68,-3.96 -13.5,-0.54 -3.78,1.44 -9.36,4.68 -14.22,7.38 -4.32,2.52 -9.18,6.66 -13.32,8.64 -1.44,0.72 -4.86,1.8 -8.1,2.88 l -0.18,3.6 z" />
      </g>
    </g>
  </g>
</svg>
